<mxfile host="app.diagrams.net" modified="2023-12-07T13:15:39.484Z" agent="Mozilla/5.0 (Windows NT 10.0; Win64; x64) AppleWebKit/537.36 (KHTML, like Gecko) Chrome/119.0.0.0 Safari/537.36 Edg/119.0.0.0" etag="A8vWIWOWyOXgg7jswbU2" version="22.1.7" type="device">
  <diagram name="第 1 页" id="xp-DR00jwhONTU3LRlZn">
    <mxGraphModel dx="960" dy="605" grid="1" gridSize="10" guides="0" tooltips="1" connect="1" arrows="1" fold="1" page="1" pageScale="1" pageWidth="3300" pageHeight="4681" math="0" shadow="0">
      <root>
        <mxCell id="0" />
        <mxCell id="1" parent="0" />
        <mxCell id="oi3orjpOED1Jghpx1w8p-5" style="edgeStyle=orthogonalEdgeStyle;rounded=0;orthogonalLoop=1;jettySize=auto;html=1;exitX=1;exitY=0.75;exitDx=0;exitDy=0;" parent="1" source="oi3orjpOED1Jghpx1w8p-2" edge="1">
          <mxGeometry relative="1" as="geometry">
            <mxPoint x="190" y="230" as="targetPoint" />
            <Array as="points">
              <mxPoint x="320" y="298" />
              <mxPoint x="320" y="150" />
              <mxPoint x="130" y="150" />
              <mxPoint x="130" y="231" />
            </Array>
          </mxGeometry>
        </mxCell>
        <mxCell id="oi3orjpOED1Jghpx1w8p-6" style="edgeStyle=orthogonalEdgeStyle;rounded=0;orthogonalLoop=1;jettySize=auto;html=1;exitX=0;exitY=0.25;exitDx=0;exitDy=0;" parent="1" source="oi3orjpOED1Jghpx1w8p-2" edge="1">
          <mxGeometry relative="1" as="geometry">
            <mxPoint x="100" y="120" as="targetPoint" />
          </mxGeometry>
        </mxCell>
        <mxCell id="oi3orjpOED1Jghpx1w8p-7" style="edgeStyle=orthogonalEdgeStyle;rounded=0;orthogonalLoop=1;jettySize=auto;html=1;exitX=0;exitY=0.75;exitDx=0;exitDy=0;" parent="1" source="oi3orjpOED1Jghpx1w8p-2" edge="1">
          <mxGeometry relative="1" as="geometry">
            <mxPoint x="100" y="120" as="targetPoint" />
          </mxGeometry>
        </mxCell>
        <mxCell id="oi3orjpOED1Jghpx1w8p-2" value="" style="rounded=0;whiteSpace=wrap;html=1;" parent="1" vertex="1">
          <mxGeometry x="180" y="180" width="90" height="130" as="geometry" />
        </mxCell>
        <mxCell id="oi3orjpOED1Jghpx1w8p-8" value="" style="endArrow=none;html=1;rounded=0;" parent="1" edge="1">
          <mxGeometry width="50" height="50" relative="1" as="geometry">
            <mxPoint x="70" y="254" as="sourcePoint" />
            <mxPoint x="180" y="254" as="targetPoint" />
          </mxGeometry>
        </mxCell>
        <mxCell id="oi3orjpOED1Jghpx1w8p-9" value="Vcc" style="text;html=1;strokeColor=none;fillColor=none;align=center;verticalAlign=middle;whiteSpace=wrap;rounded=0;" parent="1" vertex="1">
          <mxGeometry x="70" y="100" width="60" height="30" as="geometry" />
        </mxCell>
        <mxCell id="oi3orjpOED1Jghpx1w8p-10" value="Text" style="text;html=1;strokeColor=none;fillColor=none;align=center;verticalAlign=middle;whiteSpace=wrap;rounded=0;" parent="1" vertex="1">
          <mxGeometry x="160" y="360" width="60" height="30" as="geometry" />
        </mxCell>
        <mxCell id="oi3orjpOED1Jghpx1w8p-11" value="" style="endArrow=none;html=1;rounded=0;" parent="1" edge="1">
          <mxGeometry width="50" height="50" relative="1" as="geometry">
            <mxPoint x="70" y="610" as="sourcePoint" />
            <mxPoint x="110" y="610" as="targetPoint" />
          </mxGeometry>
        </mxCell>
        <mxCell id="oi3orjpOED1Jghpx1w8p-12" value="" style="endArrow=none;html=1;rounded=0;" parent="1" edge="1">
          <mxGeometry width="50" height="50" relative="1" as="geometry">
            <mxPoint x="109" y="570" as="sourcePoint" />
            <mxPoint x="149" y="570" as="targetPoint" />
          </mxGeometry>
        </mxCell>
        <mxCell id="oi3orjpOED1Jghpx1w8p-13" value="" style="endArrow=none;html=1;rounded=0;" parent="1" edge="1">
          <mxGeometry width="50" height="50" relative="1" as="geometry">
            <mxPoint x="109" y="570" as="sourcePoint" />
            <mxPoint x="110" y="611" as="targetPoint" />
          </mxGeometry>
        </mxCell>
        <mxCell id="oi3orjpOED1Jghpx1w8p-14" value="" style="endArrow=none;html=1;rounded=0;" parent="1" edge="1">
          <mxGeometry width="50" height="50" relative="1" as="geometry">
            <mxPoint x="81" y="559" as="sourcePoint" />
            <mxPoint x="121" y="559" as="targetPoint" />
          </mxGeometry>
        </mxCell>
        <mxCell id="oi3orjpOED1Jghpx1w8p-15" value="" style="endArrow=none;html=1;rounded=0;" parent="1" edge="1">
          <mxGeometry width="50" height="50" relative="1" as="geometry">
            <mxPoint x="120" y="519" as="sourcePoint" />
            <mxPoint x="160" y="519" as="targetPoint" />
          </mxGeometry>
        </mxCell>
        <mxCell id="oi3orjpOED1Jghpx1w8p-16" value="" style="endArrow=none;html=1;rounded=0;" parent="1" edge="1">
          <mxGeometry width="50" height="50" relative="1" as="geometry">
            <mxPoint x="120" y="519" as="sourcePoint" />
            <mxPoint x="121" y="560" as="targetPoint" />
          </mxGeometry>
        </mxCell>
        <mxCell id="oi3orjpOED1Jghpx1w8p-20" value="" style="group" parent="1" vertex="1" connectable="0">
          <mxGeometry x="120" y="640" width="79" height="41" as="geometry" />
        </mxCell>
        <mxCell id="oi3orjpOED1Jghpx1w8p-17" value="" style="endArrow=none;html=1;rounded=0;" parent="oi3orjpOED1Jghpx1w8p-20" edge="1">
          <mxGeometry width="50" height="50" relative="1" as="geometry">
            <mxPoint y="40" as="sourcePoint" />
            <mxPoint x="40" y="40" as="targetPoint" />
          </mxGeometry>
        </mxCell>
        <mxCell id="oi3orjpOED1Jghpx1w8p-18" value="" style="endArrow=none;html=1;rounded=0;" parent="oi3orjpOED1Jghpx1w8p-20" edge="1">
          <mxGeometry width="50" height="50" relative="1" as="geometry">
            <mxPoint x="39" as="sourcePoint" />
            <mxPoint x="79" as="targetPoint" />
          </mxGeometry>
        </mxCell>
        <mxCell id="oi3orjpOED1Jghpx1w8p-19" value="" style="endArrow=none;html=1;rounded=0;" parent="oi3orjpOED1Jghpx1w8p-20" edge="1">
          <mxGeometry width="50" height="50" relative="1" as="geometry">
            <mxPoint x="39" as="sourcePoint" />
            <mxPoint x="40" y="41" as="targetPoint" />
          </mxGeometry>
        </mxCell>
        <mxCell id="oi3orjpOED1Jghpx1w8p-29" value="" style="group" parent="oi3orjpOED1Jghpx1w8p-20" vertex="1" connectable="0">
          <mxGeometry x="38" width="41" height="41" as="geometry" />
        </mxCell>
        <mxCell id="oi3orjpOED1Jghpx1w8p-26" value="" style="endArrow=none;html=1;rounded=0;" parent="oi3orjpOED1Jghpx1w8p-29" edge="1">
          <mxGeometry width="50" height="50" relative="1" as="geometry">
            <mxPoint as="sourcePoint" />
            <mxPoint x="40" as="targetPoint" />
          </mxGeometry>
        </mxCell>
        <mxCell id="oi3orjpOED1Jghpx1w8p-27" value="" style="endArrow=none;html=1;rounded=0;" parent="oi3orjpOED1Jghpx1w8p-29" edge="1">
          <mxGeometry width="50" height="50" relative="1" as="geometry">
            <mxPoint as="sourcePoint" />
            <mxPoint x="1" y="41" as="targetPoint" />
          </mxGeometry>
        </mxCell>
        <mxCell id="oi3orjpOED1Jghpx1w8p-28" value="" style="endArrow=none;html=1;rounded=0;" parent="oi3orjpOED1Jghpx1w8p-29" edge="1">
          <mxGeometry width="50" height="50" relative="1" as="geometry">
            <mxPoint x="40" as="sourcePoint" />
            <mxPoint x="41" y="41" as="targetPoint" />
          </mxGeometry>
        </mxCell>
        <mxCell id="oi3orjpOED1Jghpx1w8p-21" value="" style="group" parent="1" vertex="1" connectable="0">
          <mxGeometry x="320" y="500" width="79" height="41" as="geometry" />
        </mxCell>
        <mxCell id="oi3orjpOED1Jghpx1w8p-22" value="" style="endArrow=none;html=1;rounded=0;" parent="oi3orjpOED1Jghpx1w8p-21" edge="1">
          <mxGeometry width="50" height="50" relative="1" as="geometry">
            <mxPoint y="40" as="sourcePoint" />
            <mxPoint x="40" y="40" as="targetPoint" />
          </mxGeometry>
        </mxCell>
        <mxCell id="oi3orjpOED1Jghpx1w8p-23" value="" style="endArrow=none;html=1;rounded=0;" parent="oi3orjpOED1Jghpx1w8p-21" edge="1">
          <mxGeometry width="50" height="50" relative="1" as="geometry">
            <mxPoint x="39" as="sourcePoint" />
            <mxPoint x="79" as="targetPoint" />
          </mxGeometry>
        </mxCell>
        <mxCell id="oi3orjpOED1Jghpx1w8p-24" value="" style="endArrow=none;html=1;rounded=0;" parent="oi3orjpOED1Jghpx1w8p-21" edge="1">
          <mxGeometry width="50" height="50" relative="1" as="geometry">
            <mxPoint x="39" as="sourcePoint" />
            <mxPoint x="40" y="41" as="targetPoint" />
          </mxGeometry>
        </mxCell>
        <mxCell id="oi3orjpOED1Jghpx1w8p-25" value="" style="endArrow=none;html=1;rounded=0;" parent="1" edge="1">
          <mxGeometry width="50" height="50" relative="1" as="geometry">
            <mxPoint x="149" y="570" as="sourcePoint" />
            <mxPoint x="150" y="611" as="targetPoint" />
          </mxGeometry>
        </mxCell>
        <mxCell id="oi3orjpOED1Jghpx1w8p-33" value="" style="group" parent="1" vertex="1" connectable="0">
          <mxGeometry x="229.5" y="540" width="41" height="41" as="geometry" />
        </mxCell>
        <mxCell id="oi3orjpOED1Jghpx1w8p-30" value="" style="endArrow=none;html=1;rounded=0;" parent="oi3orjpOED1Jghpx1w8p-33" edge="1">
          <mxGeometry width="50" height="50" relative="1" as="geometry">
            <mxPoint as="sourcePoint" />
            <mxPoint x="40" as="targetPoint" />
          </mxGeometry>
        </mxCell>
        <mxCell id="oi3orjpOED1Jghpx1w8p-31" value="" style="endArrow=none;html=1;rounded=0;" parent="oi3orjpOED1Jghpx1w8p-33" edge="1">
          <mxGeometry width="50" height="50" relative="1" as="geometry">
            <mxPoint as="sourcePoint" />
            <mxPoint x="1" y="41" as="targetPoint" />
          </mxGeometry>
        </mxCell>
        <mxCell id="oi3orjpOED1Jghpx1w8p-32" value="" style="endArrow=none;html=1;rounded=0;" parent="oi3orjpOED1Jghpx1w8p-33" edge="1">
          <mxGeometry width="50" height="50" relative="1" as="geometry">
            <mxPoint x="40" as="sourcePoint" />
            <mxPoint x="41" y="41" as="targetPoint" />
          </mxGeometry>
        </mxCell>
        <mxCell id="oi3orjpOED1Jghpx1w8p-34" value="" style="group;rotation=-180;" parent="1" vertex="1" connectable="0">
          <mxGeometry x="320" y="570" width="41" height="41" as="geometry" />
        </mxCell>
        <mxCell id="oi3orjpOED1Jghpx1w8p-35" value="" style="endArrow=none;html=1;rounded=0;" parent="oi3orjpOED1Jghpx1w8p-34" edge="1">
          <mxGeometry width="50" height="50" relative="1" as="geometry">
            <mxPoint x="41" y="41" as="sourcePoint" />
            <mxPoint x="1" y="41" as="targetPoint" />
          </mxGeometry>
        </mxCell>
        <mxCell id="oi3orjpOED1Jghpx1w8p-36" value="" style="endArrow=none;html=1;rounded=0;" parent="oi3orjpOED1Jghpx1w8p-34" edge="1">
          <mxGeometry width="50" height="50" relative="1" as="geometry">
            <mxPoint x="41" y="41" as="sourcePoint" />
            <mxPoint x="40" as="targetPoint" />
          </mxGeometry>
        </mxCell>
        <mxCell id="oi3orjpOED1Jghpx1w8p-37" value="" style="endArrow=none;html=1;rounded=0;" parent="oi3orjpOED1Jghpx1w8p-34" edge="1">
          <mxGeometry width="50" height="50" relative="1" as="geometry">
            <mxPoint x="1" y="41" as="sourcePoint" />
            <mxPoint as="targetPoint" />
          </mxGeometry>
        </mxCell>
        <mxCell id="oi3orjpOED1Jghpx1w8p-38" value="" style="group" parent="1" vertex="1" connectable="0">
          <mxGeometry x="200" y="640" width="79" height="41" as="geometry" />
        </mxCell>
        <mxCell id="oi3orjpOED1Jghpx1w8p-39" value="" style="endArrow=none;html=1;rounded=0;" parent="oi3orjpOED1Jghpx1w8p-38" edge="1">
          <mxGeometry width="50" height="50" relative="1" as="geometry">
            <mxPoint y="40" as="sourcePoint" />
            <mxPoint x="40" y="40" as="targetPoint" />
          </mxGeometry>
        </mxCell>
        <mxCell id="oi3orjpOED1Jghpx1w8p-40" value="" style="endArrow=none;html=1;rounded=0;" parent="oi3orjpOED1Jghpx1w8p-38" edge="1">
          <mxGeometry width="50" height="50" relative="1" as="geometry">
            <mxPoint x="39" as="sourcePoint" />
            <mxPoint x="79" as="targetPoint" />
          </mxGeometry>
        </mxCell>
        <mxCell id="oi3orjpOED1Jghpx1w8p-41" value="" style="endArrow=none;html=1;rounded=0;" parent="oi3orjpOED1Jghpx1w8p-38" edge="1">
          <mxGeometry width="50" height="50" relative="1" as="geometry">
            <mxPoint x="39" as="sourcePoint" />
            <mxPoint x="40" y="41" as="targetPoint" />
          </mxGeometry>
        </mxCell>
        <mxCell id="oi3orjpOED1Jghpx1w8p-42" value="" style="group;rotation=-180;" parent="1" vertex="1" connectable="0">
          <mxGeometry x="279" y="640" width="41" height="41" as="geometry" />
        </mxCell>
        <mxCell id="oi3orjpOED1Jghpx1w8p-43" value="" style="endArrow=none;html=1;rounded=0;" parent="oi3orjpOED1Jghpx1w8p-42" edge="1">
          <mxGeometry width="50" height="50" relative="1" as="geometry">
            <mxPoint x="41" y="41" as="sourcePoint" />
            <mxPoint x="1" y="41" as="targetPoint" />
          </mxGeometry>
        </mxCell>
        <mxCell id="oi3orjpOED1Jghpx1w8p-44" value="" style="endArrow=none;html=1;rounded=0;" parent="oi3orjpOED1Jghpx1w8p-42" edge="1">
          <mxGeometry width="50" height="50" relative="1" as="geometry">
            <mxPoint x="41" y="41" as="sourcePoint" />
            <mxPoint x="40" as="targetPoint" />
          </mxGeometry>
        </mxCell>
        <mxCell id="oi3orjpOED1Jghpx1w8p-45" value="" style="endArrow=none;html=1;rounded=0;" parent="oi3orjpOED1Jghpx1w8p-42" edge="1">
          <mxGeometry width="50" height="50" relative="1" as="geometry">
            <mxPoint x="1" y="41" as="sourcePoint" />
            <mxPoint as="targetPoint" />
          </mxGeometry>
        </mxCell>
        <mxCell id="oi3orjpOED1Jghpx1w8p-48" value="" style="group" parent="1" vertex="1" connectable="0">
          <mxGeometry x="420" y="570" width="41" height="41" as="geometry" />
        </mxCell>
        <mxCell id="oi3orjpOED1Jghpx1w8p-46" value="" style="endArrow=none;html=1;rounded=0;" parent="oi3orjpOED1Jghpx1w8p-48" edge="1">
          <mxGeometry width="50" height="50" relative="1" as="geometry">
            <mxPoint as="sourcePoint" />
            <mxPoint x="40" as="targetPoint" />
          </mxGeometry>
        </mxCell>
        <mxCell id="oi3orjpOED1Jghpx1w8p-47" value="" style="endArrow=none;html=1;rounded=0;" parent="oi3orjpOED1Jghpx1w8p-48" edge="1">
          <mxGeometry width="50" height="50" relative="1" as="geometry">
            <mxPoint x="40" as="sourcePoint" />
            <mxPoint x="41" y="41" as="targetPoint" />
          </mxGeometry>
        </mxCell>
        <mxCell id="oi3orjpOED1Jghpx1w8p-49" value="" style="group" parent="1" vertex="1" connectable="0">
          <mxGeometry x="320" y="640" width="41" height="41" as="geometry" />
        </mxCell>
        <mxCell id="oi3orjpOED1Jghpx1w8p-50" value="" style="endArrow=none;html=1;rounded=0;" parent="oi3orjpOED1Jghpx1w8p-49" edge="1">
          <mxGeometry width="50" height="50" relative="1" as="geometry">
            <mxPoint as="sourcePoint" />
            <mxPoint x="40" as="targetPoint" />
          </mxGeometry>
        </mxCell>
        <mxCell id="oi3orjpOED1Jghpx1w8p-51" value="" style="endArrow=none;html=1;rounded=0;" parent="oi3orjpOED1Jghpx1w8p-49" edge="1">
          <mxGeometry width="50" height="50" relative="1" as="geometry">
            <mxPoint x="40" as="sourcePoint" />
            <mxPoint x="41" y="41" as="targetPoint" />
          </mxGeometry>
        </mxCell>
        <mxCell id="oi3orjpOED1Jghpx1w8p-54" value="" style="group" parent="1" vertex="1" connectable="0">
          <mxGeometry x="361" y="640" width="40" height="41" as="geometry" />
        </mxCell>
        <mxCell id="oi3orjpOED1Jghpx1w8p-52" value="" style="endArrow=none;html=1;rounded=0;" parent="oi3orjpOED1Jghpx1w8p-54" edge="1">
          <mxGeometry width="50" height="50" relative="1" as="geometry">
            <mxPoint y="40" as="sourcePoint" />
            <mxPoint x="40" y="40" as="targetPoint" />
          </mxGeometry>
        </mxCell>
        <mxCell id="oi3orjpOED1Jghpx1w8p-53" value="" style="endArrow=none;html=1;rounded=0;" parent="oi3orjpOED1Jghpx1w8p-54" edge="1">
          <mxGeometry width="50" height="50" relative="1" as="geometry">
            <mxPoint x="39" as="sourcePoint" />
            <mxPoint x="40" y="41" as="targetPoint" />
          </mxGeometry>
        </mxCell>
        <mxCell id="oi3orjpOED1Jghpx1w8p-55" value="" style="group" parent="1" vertex="1" connectable="0">
          <mxGeometry x="510" y="570" width="40" height="41" as="geometry" />
        </mxCell>
        <mxCell id="oi3orjpOED1Jghpx1w8p-56" value="" style="endArrow=none;html=1;rounded=0;" parent="oi3orjpOED1Jghpx1w8p-55" edge="1">
          <mxGeometry width="50" height="50" relative="1" as="geometry">
            <mxPoint y="40" as="sourcePoint" />
            <mxPoint x="40" y="40" as="targetPoint" />
          </mxGeometry>
        </mxCell>
        <mxCell id="oi3orjpOED1Jghpx1w8p-57" value="" style="endArrow=none;html=1;rounded=0;" parent="oi3orjpOED1Jghpx1w8p-55" edge="1">
          <mxGeometry width="50" height="50" relative="1" as="geometry">
            <mxPoint x="39" as="sourcePoint" />
            <mxPoint x="40" y="41" as="targetPoint" />
          </mxGeometry>
        </mxCell>
        <mxCell id="oi3orjpOED1Jghpx1w8p-58" value="" style="group" parent="1" vertex="1" connectable="0">
          <mxGeometry x="440" y="640" width="79" height="41" as="geometry" />
        </mxCell>
        <mxCell id="oi3orjpOED1Jghpx1w8p-59" value="" style="endArrow=none;html=1;rounded=0;" parent="oi3orjpOED1Jghpx1w8p-58" edge="1">
          <mxGeometry width="50" height="50" relative="1" as="geometry">
            <mxPoint y="40" as="sourcePoint" />
            <mxPoint x="40" y="40" as="targetPoint" />
          </mxGeometry>
        </mxCell>
        <mxCell id="oi3orjpOED1Jghpx1w8p-60" value="" style="endArrow=none;html=1;rounded=0;" parent="oi3orjpOED1Jghpx1w8p-58" edge="1">
          <mxGeometry width="50" height="50" relative="1" as="geometry">
            <mxPoint x="39" as="sourcePoint" />
            <mxPoint x="79" as="targetPoint" />
          </mxGeometry>
        </mxCell>
        <mxCell id="oi3orjpOED1Jghpx1w8p-61" value="" style="endArrow=none;html=1;rounded=0;" parent="oi3orjpOED1Jghpx1w8p-58" edge="1">
          <mxGeometry width="50" height="50" relative="1" as="geometry">
            <mxPoint x="39" as="sourcePoint" />
            <mxPoint x="40" y="41" as="targetPoint" />
          </mxGeometry>
        </mxCell>
        <mxCell id="oi3orjpOED1Jghpx1w8p-62" value="" style="group;rotation=-180;" parent="1" vertex="1" connectable="0">
          <mxGeometry x="519" y="640" width="41" height="41" as="geometry" />
        </mxCell>
        <mxCell id="oi3orjpOED1Jghpx1w8p-63" value="" style="endArrow=none;html=1;rounded=0;" parent="oi3orjpOED1Jghpx1w8p-62" edge="1">
          <mxGeometry width="50" height="50" relative="1" as="geometry">
            <mxPoint x="41" y="41" as="sourcePoint" />
            <mxPoint x="1" y="41" as="targetPoint" />
          </mxGeometry>
        </mxCell>
        <mxCell id="oi3orjpOED1Jghpx1w8p-64" value="" style="endArrow=none;html=1;rounded=0;" parent="oi3orjpOED1Jghpx1w8p-62" edge="1">
          <mxGeometry width="50" height="50" relative="1" as="geometry">
            <mxPoint x="41" y="41" as="sourcePoint" />
            <mxPoint x="40" as="targetPoint" />
          </mxGeometry>
        </mxCell>
        <mxCell id="oi3orjpOED1Jghpx1w8p-65" value="" style="endArrow=none;html=1;rounded=0;" parent="oi3orjpOED1Jghpx1w8p-62" edge="1">
          <mxGeometry width="50" height="50" relative="1" as="geometry">
            <mxPoint x="1" y="41" as="sourcePoint" />
            <mxPoint as="targetPoint" />
          </mxGeometry>
        </mxCell>
        <mxCell id="oi3orjpOED1Jghpx1w8p-66" value="" style="group" parent="1" vertex="1" connectable="0">
          <mxGeometry x="560" y="640" width="41" height="41" as="geometry" />
        </mxCell>
        <mxCell id="oi3orjpOED1Jghpx1w8p-67" value="" style="endArrow=none;html=1;rounded=0;" parent="oi3orjpOED1Jghpx1w8p-66" edge="1">
          <mxGeometry width="50" height="50" relative="1" as="geometry">
            <mxPoint as="sourcePoint" />
            <mxPoint x="40" as="targetPoint" />
          </mxGeometry>
        </mxCell>
        <mxCell id="oi3orjpOED1Jghpx1w8p-68" value="" style="endArrow=none;html=1;rounded=0;" parent="oi3orjpOED1Jghpx1w8p-66" edge="1">
          <mxGeometry width="50" height="50" relative="1" as="geometry">
            <mxPoint x="40" as="sourcePoint" />
            <mxPoint x="41" y="41" as="targetPoint" />
          </mxGeometry>
        </mxCell>
        <mxCell id="oi3orjpOED1Jghpx1w8p-69" value="" style="group" parent="1" vertex="1" connectable="0">
          <mxGeometry x="601" y="640" width="40" height="41" as="geometry" />
        </mxCell>
        <mxCell id="oi3orjpOED1Jghpx1w8p-70" value="" style="endArrow=none;html=1;rounded=0;" parent="oi3orjpOED1Jghpx1w8p-69" edge="1">
          <mxGeometry width="50" height="50" relative="1" as="geometry">
            <mxPoint y="40" as="sourcePoint" />
            <mxPoint x="40" y="40" as="targetPoint" />
          </mxGeometry>
        </mxCell>
        <mxCell id="oi3orjpOED1Jghpx1w8p-71" value="" style="endArrow=none;html=1;rounded=0;" parent="oi3orjpOED1Jghpx1w8p-69" edge="1">
          <mxGeometry width="50" height="50" relative="1" as="geometry">
            <mxPoint x="39" as="sourcePoint" />
            <mxPoint x="40" y="41" as="targetPoint" />
          </mxGeometry>
        </mxCell>
        <mxCell id="oi3orjpOED1Jghpx1w8p-72" value="" style="group" parent="1" vertex="1" connectable="0">
          <mxGeometry x="400" y="640" width="41" height="41" as="geometry" />
        </mxCell>
        <mxCell id="oi3orjpOED1Jghpx1w8p-73" value="" style="endArrow=none;html=1;rounded=0;" parent="oi3orjpOED1Jghpx1w8p-72" edge="1">
          <mxGeometry width="50" height="50" relative="1" as="geometry">
            <mxPoint as="sourcePoint" />
            <mxPoint x="40" as="targetPoint" />
          </mxGeometry>
        </mxCell>
        <mxCell id="oi3orjpOED1Jghpx1w8p-74" value="" style="endArrow=none;html=1;rounded=0;" parent="oi3orjpOED1Jghpx1w8p-72" edge="1">
          <mxGeometry width="50" height="50" relative="1" as="geometry">
            <mxPoint x="40" as="sourcePoint" />
            <mxPoint x="41" y="41" as="targetPoint" />
          </mxGeometry>
        </mxCell>
        <mxCell id="oi3orjpOED1Jghpx1w8p-75" value="" style="group" parent="1" vertex="1" connectable="0">
          <mxGeometry x="80" y="640" width="41" height="40" as="geometry" />
        </mxCell>
        <mxCell id="oi3orjpOED1Jghpx1w8p-76" value="" style="endArrow=none;html=1;rounded=0;" parent="oi3orjpOED1Jghpx1w8p-75" edge="1">
          <mxGeometry width="50" height="50" relative="1" as="geometry">
            <mxPoint as="sourcePoint" />
            <mxPoint x="40" as="targetPoint" />
          </mxGeometry>
        </mxCell>
        <mxCell id="oi3orjpOED1Jghpx1w8p-77" value="" style="endArrow=none;html=1;rounded=0;" parent="oi3orjpOED1Jghpx1w8p-75" edge="1">
          <mxGeometry width="50" height="50" relative="1" as="geometry">
            <mxPoint as="sourcePoint" />
            <mxPoint x="1" y="40" as="targetPoint" />
          </mxGeometry>
        </mxCell>
        <mxCell id="oi3orjpOED1Jghpx1w8p-78" value="" style="endArrow=none;html=1;rounded=0;" parent="oi3orjpOED1Jghpx1w8p-75" edge="1">
          <mxGeometry width="50" height="50" relative="1" as="geometry">
            <mxPoint x="40" as="sourcePoint" />
            <mxPoint x="41" y="40" as="targetPoint" />
          </mxGeometry>
        </mxCell>
        <mxCell id="oi3orjpOED1Jghpx1w8p-79" value="" style="group" parent="1" vertex="1" connectable="0">
          <mxGeometry x="640" y="640" width="41" height="41" as="geometry" />
        </mxCell>
        <mxCell id="oi3orjpOED1Jghpx1w8p-80" value="" style="endArrow=none;html=1;rounded=0;" parent="oi3orjpOED1Jghpx1w8p-79" edge="1">
          <mxGeometry width="50" height="50" relative="1" as="geometry">
            <mxPoint as="sourcePoint" />
            <mxPoint x="40" as="targetPoint" />
          </mxGeometry>
        </mxCell>
        <mxCell id="oi3orjpOED1Jghpx1w8p-81" value="" style="endArrow=none;html=1;rounded=0;" parent="oi3orjpOED1Jghpx1w8p-79" edge="1">
          <mxGeometry width="50" height="50" relative="1" as="geometry">
            <mxPoint x="40" as="sourcePoint" />
            <mxPoint x="41" y="41" as="targetPoint" />
          </mxGeometry>
        </mxCell>
        <mxCell id="oi3orjpOED1Jghpx1w8p-82" value="" style="endArrow=none;html=1;rounded=0;" parent="1" edge="1">
          <mxGeometry width="50" height="50" relative="1" as="geometry">
            <mxPoint x="60" y="680" as="sourcePoint" />
            <mxPoint x="80" y="680" as="targetPoint" />
          </mxGeometry>
        </mxCell>
        <mxCell id="oi3orjpOED1Jghpx1w8p-83" value="" style="endArrow=none;html=1;rounded=0;" parent="1" edge="1">
          <mxGeometry width="50" height="50" relative="1" as="geometry">
            <mxPoint x="160.74" y="1070" as="sourcePoint" />
            <mxPoint x="200.74" y="1070" as="targetPoint" />
          </mxGeometry>
        </mxCell>
        <mxCell id="oi3orjpOED1Jghpx1w8p-84" value="" style="endArrow=none;html=1;rounded=0;" parent="1" edge="1">
          <mxGeometry width="50" height="50" relative="1" as="geometry">
            <mxPoint x="240.74" y="1070" as="sourcePoint" />
            <mxPoint x="280.74" y="1070" as="targetPoint" />
          </mxGeometry>
        </mxCell>
        <mxCell id="oi3orjpOED1Jghpx1w8p-85" value="" style="endArrow=none;html=1;rounded=0;" parent="1" edge="1">
          <mxGeometry width="50" height="50" relative="1" as="geometry">
            <mxPoint x="320.74" y="1070" as="sourcePoint" />
            <mxPoint x="360.74" y="1070" as="targetPoint" />
          </mxGeometry>
        </mxCell>
        <mxCell id="oi3orjpOED1Jghpx1w8p-86" value="" style="endArrow=none;html=1;rounded=0;" parent="1" edge="1">
          <mxGeometry width="50" height="50" relative="1" as="geometry">
            <mxPoint x="400.74" y="1070" as="sourcePoint" />
            <mxPoint x="400.74" y="1110" as="targetPoint" />
          </mxGeometry>
        </mxCell>
        <mxCell id="oi3orjpOED1Jghpx1w8p-87" value="" style="endArrow=none;html=1;rounded=0;" parent="1" edge="1">
          <mxGeometry width="50" height="50" relative="1" as="geometry">
            <mxPoint x="320.74" y="1070" as="sourcePoint" />
            <mxPoint x="320.74" y="1110" as="targetPoint" />
          </mxGeometry>
        </mxCell>
        <mxCell id="oi3orjpOED1Jghpx1w8p-88" value="" style="endArrow=none;html=1;rounded=0;" parent="1" edge="1">
          <mxGeometry width="50" height="50" relative="1" as="geometry">
            <mxPoint x="240.74" y="1070" as="sourcePoint" />
            <mxPoint x="240.74" y="1110" as="targetPoint" />
          </mxGeometry>
        </mxCell>
        <mxCell id="oi3orjpOED1Jghpx1w8p-89" value="" style="endArrow=none;html=1;rounded=0;" parent="1" edge="1">
          <mxGeometry width="50" height="50" relative="1" as="geometry">
            <mxPoint x="200.74" y="1070" as="sourcePoint" />
            <mxPoint x="200.74" y="1110" as="targetPoint" />
          </mxGeometry>
        </mxCell>
        <mxCell id="oi3orjpOED1Jghpx1w8p-90" value="" style="endArrow=none;html=1;rounded=0;" parent="1" edge="1">
          <mxGeometry width="50" height="50" relative="1" as="geometry">
            <mxPoint x="400.74" y="1110" as="sourcePoint" />
            <mxPoint x="440" y="1110" as="targetPoint" />
          </mxGeometry>
        </mxCell>
        <mxCell id="oi3orjpOED1Jghpx1w8p-94" value="" style="group" parent="1" vertex="1" connectable="0">
          <mxGeometry x="80" y="720" width="79.63" as="geometry" />
        </mxCell>
        <mxCell id="oi3orjpOED1Jghpx1w8p-91" value="" style="endArrow=none;html=1;rounded=0;" parent="oi3orjpOED1Jghpx1w8p-94" edge="1">
          <mxGeometry width="50" height="50" relative="1" as="geometry">
            <mxPoint as="sourcePoint" />
            <mxPoint x="39.25999999999999" as="targetPoint" />
          </mxGeometry>
        </mxCell>
        <mxCell id="oi3orjpOED1Jghpx1w8p-92" value="" style="endArrow=none;html=1;rounded=0;" parent="oi3orjpOED1Jghpx1w8p-94" edge="1">
          <mxGeometry width="50" height="50" relative="1" as="geometry">
            <mxPoint x="40.370000000000005" as="sourcePoint" />
            <mxPoint x="79.63" as="targetPoint" />
          </mxGeometry>
        </mxCell>
        <mxCell id="oi3orjpOED1Jghpx1w8p-93" value="" style="endArrow=none;html=1;rounded=0;" parent="oi3orjpOED1Jghpx1w8p-94" edge="1">
          <mxGeometry width="50" height="50" relative="1" as="geometry">
            <mxPoint x="10.370000000000005" as="sourcePoint" />
            <mxPoint x="49.629999999999995" as="targetPoint" />
          </mxGeometry>
        </mxCell>
        <mxCell id="oi3orjpOED1Jghpx1w8p-95" value="" style="endArrow=none;html=1;rounded=0;" parent="1" edge="1">
          <mxGeometry width="50" height="50" relative="1" as="geometry">
            <mxPoint x="60" y="760" as="sourcePoint" />
            <mxPoint x="80" y="760" as="targetPoint" />
          </mxGeometry>
        </mxCell>
        <mxCell id="oi3orjpOED1Jghpx1w8p-96" value="" style="group" parent="1" vertex="1" connectable="0">
          <mxGeometry x="50" y="1000" width="79.63" as="geometry" />
        </mxCell>
        <mxCell id="oi3orjpOED1Jghpx1w8p-97" value="" style="endArrow=none;html=1;rounded=0;" parent="oi3orjpOED1Jghpx1w8p-96" edge="1">
          <mxGeometry width="50" height="50" relative="1" as="geometry">
            <mxPoint as="sourcePoint" />
            <mxPoint x="39.25999999999999" as="targetPoint" />
          </mxGeometry>
        </mxCell>
        <mxCell id="oi3orjpOED1Jghpx1w8p-98" value="" style="endArrow=none;html=1;rounded=0;" parent="oi3orjpOED1Jghpx1w8p-96" edge="1">
          <mxGeometry width="50" height="50" relative="1" as="geometry">
            <mxPoint x="40.370000000000005" as="sourcePoint" />
            <mxPoint x="79.63" as="targetPoint" />
          </mxGeometry>
        </mxCell>
        <mxCell id="oi3orjpOED1Jghpx1w8p-99" value="" style="endArrow=none;html=1;rounded=0;" parent="oi3orjpOED1Jghpx1w8p-96" edge="1">
          <mxGeometry width="50" height="50" relative="1" as="geometry">
            <mxPoint x="10.370000000000005" as="sourcePoint" />
            <mxPoint x="49.629999999999995" as="targetPoint" />
          </mxGeometry>
        </mxCell>
        <mxCell id="oi3orjpOED1Jghpx1w8p-100" value="" style="group" parent="1" vertex="1" connectable="0">
          <mxGeometry x="160" y="760" width="79.63" as="geometry" />
        </mxCell>
        <mxCell id="oi3orjpOED1Jghpx1w8p-101" value="" style="endArrow=none;html=1;rounded=0;" parent="oi3orjpOED1Jghpx1w8p-100" edge="1">
          <mxGeometry width="50" height="50" relative="1" as="geometry">
            <mxPoint as="sourcePoint" />
            <mxPoint x="39.25999999999999" as="targetPoint" />
          </mxGeometry>
        </mxCell>
        <mxCell id="oi3orjpOED1Jghpx1w8p-102" value="" style="endArrow=none;html=1;rounded=0;" parent="oi3orjpOED1Jghpx1w8p-100" edge="1">
          <mxGeometry width="50" height="50" relative="1" as="geometry">
            <mxPoint x="40.370000000000005" as="sourcePoint" />
            <mxPoint x="79.63" as="targetPoint" />
          </mxGeometry>
        </mxCell>
        <mxCell id="oi3orjpOED1Jghpx1w8p-103" value="" style="endArrow=none;html=1;rounded=0;" parent="oi3orjpOED1Jghpx1w8p-100" edge="1">
          <mxGeometry width="50" height="50" relative="1" as="geometry">
            <mxPoint x="10.370000000000005" as="sourcePoint" />
            <mxPoint x="49.629999999999995" as="targetPoint" />
          </mxGeometry>
        </mxCell>
        <mxCell id="oi3orjpOED1Jghpx1w8p-104" value="" style="group" parent="1" vertex="1" connectable="0">
          <mxGeometry x="240" y="720" width="79.63" as="geometry" />
        </mxCell>
        <mxCell id="oi3orjpOED1Jghpx1w8p-105" value="" style="endArrow=none;html=1;rounded=0;" parent="oi3orjpOED1Jghpx1w8p-104" edge="1">
          <mxGeometry width="50" height="50" relative="1" as="geometry">
            <mxPoint as="sourcePoint" />
            <mxPoint x="39.25999999999999" as="targetPoint" />
          </mxGeometry>
        </mxCell>
        <mxCell id="oi3orjpOED1Jghpx1w8p-106" value="" style="endArrow=none;html=1;rounded=0;" parent="oi3orjpOED1Jghpx1w8p-104" edge="1">
          <mxGeometry width="50" height="50" relative="1" as="geometry">
            <mxPoint x="40.370000000000005" as="sourcePoint" />
            <mxPoint x="79.63" as="targetPoint" />
          </mxGeometry>
        </mxCell>
        <mxCell id="oi3orjpOED1Jghpx1w8p-107" value="" style="endArrow=none;html=1;rounded=0;" parent="oi3orjpOED1Jghpx1w8p-104" edge="1">
          <mxGeometry width="50" height="50" relative="1" as="geometry">
            <mxPoint x="10.370000000000005" as="sourcePoint" />
            <mxPoint x="49.629999999999995" as="targetPoint" />
          </mxGeometry>
        </mxCell>
        <mxCell id="oi3orjpOED1Jghpx1w8p-108" value="" style="group" parent="1" vertex="1" connectable="0">
          <mxGeometry x="320" y="760" width="79.63" as="geometry" />
        </mxCell>
        <mxCell id="oi3orjpOED1Jghpx1w8p-109" value="" style="endArrow=none;html=1;rounded=0;" parent="oi3orjpOED1Jghpx1w8p-108" edge="1">
          <mxGeometry width="50" height="50" relative="1" as="geometry">
            <mxPoint as="sourcePoint" />
            <mxPoint x="39.25999999999999" as="targetPoint" />
          </mxGeometry>
        </mxCell>
        <mxCell id="oi3orjpOED1Jghpx1w8p-110" value="" style="endArrow=none;html=1;rounded=0;" parent="oi3orjpOED1Jghpx1w8p-108" edge="1">
          <mxGeometry width="50" height="50" relative="1" as="geometry">
            <mxPoint x="40.370000000000005" as="sourcePoint" />
            <mxPoint x="79.63" as="targetPoint" />
          </mxGeometry>
        </mxCell>
        <mxCell id="oi3orjpOED1Jghpx1w8p-111" value="" style="endArrow=none;html=1;rounded=0;" parent="oi3orjpOED1Jghpx1w8p-108" edge="1">
          <mxGeometry width="50" height="50" relative="1" as="geometry">
            <mxPoint x="10.370000000000005" as="sourcePoint" />
            <mxPoint x="49.629999999999995" as="targetPoint" />
          </mxGeometry>
        </mxCell>
        <mxCell id="oi3orjpOED1Jghpx1w8p-112" value="" style="group" parent="1" vertex="1" connectable="0">
          <mxGeometry x="400" y="720" width="79.63" as="geometry" />
        </mxCell>
        <mxCell id="oi3orjpOED1Jghpx1w8p-113" value="" style="endArrow=none;html=1;rounded=0;" parent="oi3orjpOED1Jghpx1w8p-112" edge="1">
          <mxGeometry width="50" height="50" relative="1" as="geometry">
            <mxPoint as="sourcePoint" />
            <mxPoint x="39.25999999999999" as="targetPoint" />
          </mxGeometry>
        </mxCell>
        <mxCell id="oi3orjpOED1Jghpx1w8p-114" value="" style="endArrow=none;html=1;rounded=0;" parent="oi3orjpOED1Jghpx1w8p-112" edge="1">
          <mxGeometry width="50" height="50" relative="1" as="geometry">
            <mxPoint x="40.370000000000005" as="sourcePoint" />
            <mxPoint x="79.63" as="targetPoint" />
          </mxGeometry>
        </mxCell>
        <mxCell id="oi3orjpOED1Jghpx1w8p-115" value="" style="endArrow=none;html=1;rounded=0;" parent="oi3orjpOED1Jghpx1w8p-112" edge="1">
          <mxGeometry width="50" height="50" relative="1" as="geometry">
            <mxPoint x="10.370000000000005" as="sourcePoint" />
            <mxPoint x="49.629999999999995" as="targetPoint" />
          </mxGeometry>
        </mxCell>
        <mxCell id="oi3orjpOED1Jghpx1w8p-116" value="" style="endArrow=none;html=1;rounded=0;" parent="1" edge="1">
          <mxGeometry width="50" height="50" relative="1" as="geometry">
            <mxPoint x="520" y="760" as="sourcePoint" />
            <mxPoint x="559.26" y="760" as="targetPoint" />
          </mxGeometry>
        </mxCell>
        <mxCell id="oi3orjpOED1Jghpx1w8p-117" value="" style="endArrow=none;html=1;rounded=0;" parent="1" edge="1">
          <mxGeometry width="50" height="50" relative="1" as="geometry">
            <mxPoint x="480" y="760" as="sourcePoint" />
            <mxPoint x="529.26" y="760" as="targetPoint" />
          </mxGeometry>
        </mxCell>
        <mxCell id="oi3orjpOED1Jghpx1w8p-118" value="" style="group" parent="1" vertex="1" connectable="0">
          <mxGeometry x="559.63" y="720" width="79.63" as="geometry" />
        </mxCell>
        <mxCell id="oi3orjpOED1Jghpx1w8p-119" value="" style="endArrow=none;html=1;rounded=0;" parent="oi3orjpOED1Jghpx1w8p-118" edge="1">
          <mxGeometry width="50" height="50" relative="1" as="geometry">
            <mxPoint as="sourcePoint" />
            <mxPoint x="39.25999999999999" as="targetPoint" />
          </mxGeometry>
        </mxCell>
        <mxCell id="oi3orjpOED1Jghpx1w8p-120" value="" style="endArrow=none;html=1;rounded=0;" parent="oi3orjpOED1Jghpx1w8p-118" edge="1">
          <mxGeometry width="50" height="50" relative="1" as="geometry">
            <mxPoint x="40.370000000000005" as="sourcePoint" />
            <mxPoint x="79.63" as="targetPoint" />
          </mxGeometry>
        </mxCell>
        <mxCell id="oi3orjpOED1Jghpx1w8p-121" value="" style="endArrow=none;html=1;rounded=0;" parent="oi3orjpOED1Jghpx1w8p-118" edge="1">
          <mxGeometry width="50" height="50" relative="1" as="geometry">
            <mxPoint x="10.370000000000005" as="sourcePoint" />
            <mxPoint x="49.629999999999995" as="targetPoint" />
          </mxGeometry>
        </mxCell>
        <mxCell id="oi3orjpOED1Jghpx1w8p-122" value="" style="group" parent="1" vertex="1" connectable="0">
          <mxGeometry x="640" y="760" width="60" as="geometry" />
        </mxCell>
        <mxCell id="oi3orjpOED1Jghpx1w8p-123" value="" style="endArrow=none;html=1;rounded=0;" parent="oi3orjpOED1Jghpx1w8p-122" edge="1">
          <mxGeometry width="50" height="50" relative="1" as="geometry">
            <mxPoint as="sourcePoint" />
            <mxPoint x="29.5818158985307" as="targetPoint" />
          </mxGeometry>
        </mxCell>
        <mxCell id="oi3orjpOED1Jghpx1w8p-124" value="" style="endArrow=none;html=1;rounded=0;" parent="oi3orjpOED1Jghpx1w8p-122" edge="1">
          <mxGeometry width="50" height="50" relative="1" as="geometry">
            <mxPoint x="30.4181841014693" as="sourcePoint" />
            <mxPoint x="60" as="targetPoint" />
          </mxGeometry>
        </mxCell>
        <mxCell id="oi3orjpOED1Jghpx1w8p-125" value="" style="endArrow=none;html=1;rounded=0;" parent="oi3orjpOED1Jghpx1w8p-122" edge="1">
          <mxGeometry width="50" height="50" relative="1" as="geometry">
            <mxPoint x="7.8136380761019755" as="sourcePoint" />
            <mxPoint x="37.39545397463267" as="targetPoint" />
          </mxGeometry>
        </mxCell>
        <mxCell id="oi3orjpOED1Jghpx1w8p-126" value="" style="endArrow=none;html=1;rounded=0;" parent="1" edge="1">
          <mxGeometry width="50" height="50" relative="1" as="geometry">
            <mxPoint x="679" y="679" as="sourcePoint" />
            <mxPoint x="699" y="679" as="targetPoint" />
          </mxGeometry>
        </mxCell>
        <mxCell id="oi3orjpOED1Jghpx1w8p-128" value="" style="endArrow=none;html=1;rounded=0;" parent="1" edge="1">
          <mxGeometry width="50" height="50" relative="1" as="geometry">
            <mxPoint x="519" y="1010" as="sourcePoint" />
            <mxPoint x="519" y="970" as="targetPoint" />
          </mxGeometry>
        </mxCell>
        <mxCell id="oi3orjpOED1Jghpx1w8p-129" value="" style="endArrow=none;html=1;rounded=0;" parent="1" edge="1">
          <mxGeometry width="50" height="50" relative="1" as="geometry">
            <mxPoint x="639.26" y="760" as="sourcePoint" />
            <mxPoint x="639.26" y="720" as="targetPoint" />
          </mxGeometry>
        </mxCell>
        <mxCell id="oi3orjpOED1Jghpx1w8p-130" value="" style="endArrow=none;html=1;rounded=0;" parent="1" edge="1">
          <mxGeometry width="50" height="50" relative="1" as="geometry">
            <mxPoint x="559.63" y="760" as="sourcePoint" />
            <mxPoint x="559.63" y="720" as="targetPoint" />
          </mxGeometry>
        </mxCell>
        <mxCell id="oi3orjpOED1Jghpx1w8p-131" value="" style="endArrow=none;html=1;rounded=0;" parent="1" edge="1">
          <mxGeometry width="50" height="50" relative="1" as="geometry">
            <mxPoint x="478.94" y="760" as="sourcePoint" />
            <mxPoint x="478.94" y="720" as="targetPoint" />
          </mxGeometry>
        </mxCell>
        <mxCell id="oi3orjpOED1Jghpx1w8p-132" value="" style="endArrow=none;html=1;rounded=0;" parent="1" edge="1">
          <mxGeometry width="50" height="50" relative="1" as="geometry">
            <mxPoint x="401" y="760" as="sourcePoint" />
            <mxPoint x="401" y="720" as="targetPoint" />
          </mxGeometry>
        </mxCell>
        <mxCell id="oi3orjpOED1Jghpx1w8p-133" value="" style="endArrow=none;html=1;rounded=0;" parent="1" edge="1">
          <mxGeometry width="50" height="50" relative="1" as="geometry">
            <mxPoint x="319.63" y="760" as="sourcePoint" />
            <mxPoint x="319.63" y="720" as="targetPoint" />
          </mxGeometry>
        </mxCell>
        <mxCell id="oi3orjpOED1Jghpx1w8p-134" value="" style="endArrow=none;html=1;rounded=0;" parent="1" edge="1">
          <mxGeometry width="50" height="50" relative="1" as="geometry">
            <mxPoint x="239.63" y="760" as="sourcePoint" />
            <mxPoint x="239.63" y="720" as="targetPoint" />
          </mxGeometry>
        </mxCell>
        <mxCell id="oi3orjpOED1Jghpx1w8p-135" value="" style="endArrow=none;html=1;rounded=0;" parent="1" edge="1">
          <mxGeometry width="50" height="50" relative="1" as="geometry">
            <mxPoint x="160" y="760" as="sourcePoint" />
            <mxPoint x="160" y="720" as="targetPoint" />
          </mxGeometry>
        </mxCell>
        <mxCell id="oi3orjpOED1Jghpx1w8p-136" value="" style="endArrow=none;html=1;rounded=0;" parent="1" edge="1">
          <mxGeometry width="50" height="50" relative="1" as="geometry">
            <mxPoint x="79.30999999999995" y="760" as="sourcePoint" />
            <mxPoint x="79.30999999999995" y="720" as="targetPoint" />
          </mxGeometry>
        </mxCell>
        <mxCell id="oi3orjpOED1Jghpx1w8p-137" value="" style="group;rotation=-180;" parent="1" vertex="1" connectable="0">
          <mxGeometry x="559" y="830" width="79.63" as="geometry" />
        </mxCell>
        <mxCell id="oi3orjpOED1Jghpx1w8p-138" value="" style="endArrow=none;html=1;rounded=0;" parent="oi3orjpOED1Jghpx1w8p-137" edge="1">
          <mxGeometry width="50" height="50" relative="1" as="geometry">
            <mxPoint x="80" as="sourcePoint" />
            <mxPoint x="40" as="targetPoint" />
          </mxGeometry>
        </mxCell>
        <mxCell id="oi3orjpOED1Jghpx1w8p-139" value="" style="endArrow=none;html=1;rounded=0;" parent="oi3orjpOED1Jghpx1w8p-137" edge="1">
          <mxGeometry width="50" height="50" relative="1" as="geometry">
            <mxPoint x="39" as="sourcePoint" />
            <mxPoint as="targetPoint" />
          </mxGeometry>
        </mxCell>
        <mxCell id="oi3orjpOED1Jghpx1w8p-140" value="" style="endArrow=none;html=1;rounded=0;" parent="oi3orjpOED1Jghpx1w8p-137" edge="1">
          <mxGeometry width="50" height="50" relative="1" as="geometry">
            <mxPoint x="69" as="sourcePoint" />
            <mxPoint x="30" as="targetPoint" />
          </mxGeometry>
        </mxCell>
        <mxCell id="oi3orjpOED1Jghpx1w8p-141" value="" style="endArrow=none;html=1;rounded=0;" parent="1" edge="1">
          <mxGeometry width="50" height="50" relative="1" as="geometry">
            <mxPoint x="700" y="790" as="sourcePoint" />
            <mxPoint x="639" y="790" as="targetPoint" />
          </mxGeometry>
        </mxCell>
        <mxCell id="oi3orjpOED1Jghpx1w8p-142" value="" style="group;rotation=-180;" parent="1" vertex="1" connectable="0">
          <mxGeometry x="479" y="790" width="79.63" as="geometry" />
        </mxCell>
        <mxCell id="oi3orjpOED1Jghpx1w8p-143" value="" style="endArrow=none;html=1;rounded=0;" parent="oi3orjpOED1Jghpx1w8p-142" edge="1">
          <mxGeometry width="50" height="50" relative="1" as="geometry">
            <mxPoint x="80" as="sourcePoint" />
            <mxPoint x="40" as="targetPoint" />
          </mxGeometry>
        </mxCell>
        <mxCell id="oi3orjpOED1Jghpx1w8p-144" value="" style="endArrow=none;html=1;rounded=0;" parent="oi3orjpOED1Jghpx1w8p-142" edge="1">
          <mxGeometry width="50" height="50" relative="1" as="geometry">
            <mxPoint x="39" as="sourcePoint" />
            <mxPoint as="targetPoint" />
          </mxGeometry>
        </mxCell>
        <mxCell id="oi3orjpOED1Jghpx1w8p-145" value="" style="endArrow=none;html=1;rounded=0;" parent="oi3orjpOED1Jghpx1w8p-142" edge="1">
          <mxGeometry width="50" height="50" relative="1" as="geometry">
            <mxPoint x="69" as="sourcePoint" />
            <mxPoint x="30" as="targetPoint" />
          </mxGeometry>
        </mxCell>
        <mxCell id="oi3orjpOED1Jghpx1w8p-146" value="" style="group;rotation=-180;" parent="1" vertex="1" connectable="0">
          <mxGeometry x="399" y="830" width="79.63" as="geometry" />
        </mxCell>
        <mxCell id="oi3orjpOED1Jghpx1w8p-147" value="" style="endArrow=none;html=1;rounded=0;" parent="oi3orjpOED1Jghpx1w8p-146" edge="1">
          <mxGeometry width="50" height="50" relative="1" as="geometry">
            <mxPoint x="80" as="sourcePoint" />
            <mxPoint x="40" as="targetPoint" />
          </mxGeometry>
        </mxCell>
        <mxCell id="oi3orjpOED1Jghpx1w8p-148" value="" style="endArrow=none;html=1;rounded=0;" parent="oi3orjpOED1Jghpx1w8p-146" edge="1">
          <mxGeometry width="50" height="50" relative="1" as="geometry">
            <mxPoint x="39" as="sourcePoint" />
            <mxPoint as="targetPoint" />
          </mxGeometry>
        </mxCell>
        <mxCell id="oi3orjpOED1Jghpx1w8p-149" value="" style="endArrow=none;html=1;rounded=0;" parent="oi3orjpOED1Jghpx1w8p-146" edge="1">
          <mxGeometry width="50" height="50" relative="1" as="geometry">
            <mxPoint x="69" as="sourcePoint" />
            <mxPoint x="30" as="targetPoint" />
          </mxGeometry>
        </mxCell>
        <mxCell id="oi3orjpOED1Jghpx1w8p-150" value="" style="group;rotation=-180;" parent="1" vertex="1" connectable="0">
          <mxGeometry x="319" y="790" width="79.63" as="geometry" />
        </mxCell>
        <mxCell id="oi3orjpOED1Jghpx1w8p-151" value="" style="endArrow=none;html=1;rounded=0;" parent="oi3orjpOED1Jghpx1w8p-150" edge="1">
          <mxGeometry width="50" height="50" relative="1" as="geometry">
            <mxPoint x="80" as="sourcePoint" />
            <mxPoint x="40" as="targetPoint" />
          </mxGeometry>
        </mxCell>
        <mxCell id="oi3orjpOED1Jghpx1w8p-152" value="" style="endArrow=none;html=1;rounded=0;" parent="oi3orjpOED1Jghpx1w8p-150" edge="1">
          <mxGeometry width="50" height="50" relative="1" as="geometry">
            <mxPoint x="39" as="sourcePoint" />
            <mxPoint as="targetPoint" />
          </mxGeometry>
        </mxCell>
        <mxCell id="oi3orjpOED1Jghpx1w8p-153" value="" style="endArrow=none;html=1;rounded=0;" parent="oi3orjpOED1Jghpx1w8p-150" edge="1">
          <mxGeometry width="50" height="50" relative="1" as="geometry">
            <mxPoint x="69" as="sourcePoint" />
            <mxPoint x="30" as="targetPoint" />
          </mxGeometry>
        </mxCell>
        <mxCell id="oi3orjpOED1Jghpx1w8p-154" value="" style="group;rotation=-180;" parent="1" vertex="1" connectable="0">
          <mxGeometry x="239" y="830" width="79.63" as="geometry" />
        </mxCell>
        <mxCell id="oi3orjpOED1Jghpx1w8p-155" value="" style="endArrow=none;html=1;rounded=0;" parent="oi3orjpOED1Jghpx1w8p-154" edge="1">
          <mxGeometry width="50" height="50" relative="1" as="geometry">
            <mxPoint x="80" as="sourcePoint" />
            <mxPoint x="40" as="targetPoint" />
          </mxGeometry>
        </mxCell>
        <mxCell id="oi3orjpOED1Jghpx1w8p-156" value="" style="endArrow=none;html=1;rounded=0;" parent="oi3orjpOED1Jghpx1w8p-154" edge="1">
          <mxGeometry width="50" height="50" relative="1" as="geometry">
            <mxPoint x="39" as="sourcePoint" />
            <mxPoint as="targetPoint" />
          </mxGeometry>
        </mxCell>
        <mxCell id="oi3orjpOED1Jghpx1w8p-157" value="" style="endArrow=none;html=1;rounded=0;" parent="oi3orjpOED1Jghpx1w8p-154" edge="1">
          <mxGeometry width="50" height="50" relative="1" as="geometry">
            <mxPoint x="69" as="sourcePoint" />
            <mxPoint x="30" as="targetPoint" />
          </mxGeometry>
        </mxCell>
        <mxCell id="oi3orjpOED1Jghpx1w8p-158" value="" style="endArrow=none;html=1;rounded=0;" parent="1" edge="1">
          <mxGeometry width="50" height="50" relative="1" as="geometry">
            <mxPoint x="199" y="790" as="sourcePoint" />
            <mxPoint x="160" y="790" as="targetPoint" />
          </mxGeometry>
        </mxCell>
        <mxCell id="oi3orjpOED1Jghpx1w8p-159" value="" style="endArrow=none;html=1;rounded=0;" parent="1" edge="1">
          <mxGeometry width="50" height="50" relative="1" as="geometry">
            <mxPoint x="239" y="790" as="sourcePoint" />
            <mxPoint x="190" y="790" as="targetPoint" />
          </mxGeometry>
        </mxCell>
        <mxCell id="oi3orjpOED1Jghpx1w8p-160" value="" style="group;rotation=-180;" parent="1" vertex="1" connectable="0">
          <mxGeometry x="33.63" y="830" width="100" as="geometry" />
        </mxCell>
        <mxCell id="oi3orjpOED1Jghpx1w8p-161" value="" style="endArrow=none;html=1;rounded=0;" parent="oi3orjpOED1Jghpx1w8p-160" edge="1">
          <mxGeometry width="50" height="50" relative="1" as="geometry">
            <mxPoint x="125.5808112520407" as="sourcePoint" />
            <mxPoint x="75.34848675122443" as="targetPoint" />
          </mxGeometry>
        </mxCell>
        <mxCell id="oi3orjpOED1Jghpx1w8p-162" value="" style="endArrow=none;html=1;rounded=0;" parent="oi3orjpOED1Jghpx1w8p-160" edge="1">
          <mxGeometry width="50" height="50" relative="1" as="geometry">
            <mxPoint x="74.09267863870402" as="sourcePoint" />
            <mxPoint x="25.11616225040814" as="targetPoint" />
          </mxGeometry>
        </mxCell>
        <mxCell id="oi3orjpOED1Jghpx1w8p-163" value="" style="endArrow=none;html=1;rounded=0;" parent="oi3orjpOED1Jghpx1w8p-160" edge="1">
          <mxGeometry width="50" height="50" relative="1" as="geometry">
            <mxPoint x="111.76692201431622" as="sourcePoint" />
            <mxPoint x="62.79040562602035" as="targetPoint" />
          </mxGeometry>
        </mxCell>
        <mxCell id="oi3orjpOED1Jghpx1w8p-169" value="" style="endArrow=none;html=1;rounded=0;" parent="1" edge="1">
          <mxGeometry width="50" height="50" relative="1" as="geometry">
            <mxPoint x="159" y="790" as="sourcePoint" />
            <mxPoint x="159" y="830" as="targetPoint" />
          </mxGeometry>
        </mxCell>
        <mxCell id="oi3orjpOED1Jghpx1w8p-170" value="" style="endArrow=none;html=1;rounded=0;" parent="1" edge="1">
          <mxGeometry width="50" height="50" relative="1" as="geometry">
            <mxPoint x="240" y="790" as="sourcePoint" />
            <mxPoint x="240" y="830" as="targetPoint" />
          </mxGeometry>
        </mxCell>
        <mxCell id="oi3orjpOED1Jghpx1w8p-171" value="" style="endArrow=none;html=1;rounded=0;" parent="1" edge="1">
          <mxGeometry width="50" height="50" relative="1" as="geometry">
            <mxPoint x="318" y="790" as="sourcePoint" />
            <mxPoint x="318" y="830" as="targetPoint" />
          </mxGeometry>
        </mxCell>
        <mxCell id="oi3orjpOED1Jghpx1w8p-172" value="" style="endArrow=none;html=1;rounded=0;" parent="1" edge="1">
          <mxGeometry width="50" height="50" relative="1" as="geometry">
            <mxPoint x="399" y="790" as="sourcePoint" />
            <mxPoint x="399" y="830" as="targetPoint" />
          </mxGeometry>
        </mxCell>
        <mxCell id="oi3orjpOED1Jghpx1w8p-173" value="" style="endArrow=none;html=1;rounded=0;" parent="1" edge="1">
          <mxGeometry width="50" height="50" relative="1" as="geometry">
            <mxPoint x="479" y="790" as="sourcePoint" />
            <mxPoint x="479" y="830" as="targetPoint" />
          </mxGeometry>
        </mxCell>
        <mxCell id="oi3orjpOED1Jghpx1w8p-174" value="" style="endArrow=none;html=1;rounded=0;" parent="1" edge="1">
          <mxGeometry width="50" height="50" relative="1" as="geometry">
            <mxPoint x="559" y="790" as="sourcePoint" />
            <mxPoint x="559" y="830" as="targetPoint" />
          </mxGeometry>
        </mxCell>
        <mxCell id="oi3orjpOED1Jghpx1w8p-175" value="" style="endArrow=none;html=1;rounded=0;" parent="1" edge="1">
          <mxGeometry width="50" height="50" relative="1" as="geometry">
            <mxPoint x="640" y="790" as="sourcePoint" />
            <mxPoint x="640" y="830" as="targetPoint" />
          </mxGeometry>
        </mxCell>
        <mxCell id="oi3orjpOED1Jghpx1w8p-181" value="" style="group" parent="1" vertex="1" connectable="0">
          <mxGeometry x="60" y="890" width="100" as="geometry" />
        </mxCell>
        <mxCell id="oi3orjpOED1Jghpx1w8p-182" value="" style="endArrow=none;html=1;rounded=0;" parent="oi3orjpOED1Jghpx1w8p-181" edge="1">
          <mxGeometry width="50" height="50" relative="1" as="geometry">
            <mxPoint as="sourcePoint" />
            <mxPoint x="49.303026497551166" as="targetPoint" />
          </mxGeometry>
        </mxCell>
        <mxCell id="oi3orjpOED1Jghpx1w8p-183" value="" style="endArrow=none;html=1;rounded=0;" parent="oi3orjpOED1Jghpx1w8p-181" edge="1">
          <mxGeometry width="50" height="50" relative="1" as="geometry">
            <mxPoint x="50.696973502448834" as="sourcePoint" />
            <mxPoint x="100" as="targetPoint" />
          </mxGeometry>
        </mxCell>
        <mxCell id="oi3orjpOED1Jghpx1w8p-184" value="" style="endArrow=none;html=1;rounded=0;" parent="oi3orjpOED1Jghpx1w8p-181" edge="1">
          <mxGeometry width="50" height="50" relative="1" as="geometry">
            <mxPoint x="13.022730126836626" as="sourcePoint" />
            <mxPoint x="62.32575662438779" as="targetPoint" />
          </mxGeometry>
        </mxCell>
        <mxCell id="oi3orjpOED1Jghpx1w8p-189" value="" style="group" parent="1" vertex="1" connectable="0">
          <mxGeometry x="160.37" y="850" width="159.26" as="geometry" />
        </mxCell>
        <mxCell id="oi3orjpOED1Jghpx1w8p-177" value="" style="group" parent="oi3orjpOED1Jghpx1w8p-189" vertex="1" connectable="0">
          <mxGeometry width="79.63" as="geometry" />
        </mxCell>
        <mxCell id="oi3orjpOED1Jghpx1w8p-178" value="" style="endArrow=none;html=1;rounded=0;" parent="oi3orjpOED1Jghpx1w8p-177" edge="1">
          <mxGeometry width="50" height="50" relative="1" as="geometry">
            <mxPoint as="sourcePoint" />
            <mxPoint x="39.25999999999999" as="targetPoint" />
          </mxGeometry>
        </mxCell>
        <mxCell id="oi3orjpOED1Jghpx1w8p-179" value="" style="endArrow=none;html=1;rounded=0;" parent="oi3orjpOED1Jghpx1w8p-177" edge="1">
          <mxGeometry width="50" height="50" relative="1" as="geometry">
            <mxPoint x="40.370000000000005" as="sourcePoint" />
            <mxPoint x="79.63" as="targetPoint" />
          </mxGeometry>
        </mxCell>
        <mxCell id="oi3orjpOED1Jghpx1w8p-180" value="" style="endArrow=none;html=1;rounded=0;" parent="oi3orjpOED1Jghpx1w8p-177" edge="1">
          <mxGeometry width="50" height="50" relative="1" as="geometry">
            <mxPoint x="10.370000000000005" as="sourcePoint" />
            <mxPoint x="49.629999999999995" as="targetPoint" />
          </mxGeometry>
        </mxCell>
        <mxCell id="oi3orjpOED1Jghpx1w8p-185" value="" style="group" parent="oi3orjpOED1Jghpx1w8p-189" vertex="1" connectable="0">
          <mxGeometry x="79.63" width="79.63" as="geometry" />
        </mxCell>
        <mxCell id="oi3orjpOED1Jghpx1w8p-186" value="" style="endArrow=none;html=1;rounded=0;" parent="oi3orjpOED1Jghpx1w8p-185" edge="1">
          <mxGeometry width="50" height="50" relative="1" as="geometry">
            <mxPoint as="sourcePoint" />
            <mxPoint x="39.25999999999999" as="targetPoint" />
          </mxGeometry>
        </mxCell>
        <mxCell id="oi3orjpOED1Jghpx1w8p-187" value="" style="endArrow=none;html=1;rounded=0;" parent="oi3orjpOED1Jghpx1w8p-185" edge="1">
          <mxGeometry width="50" height="50" relative="1" as="geometry">
            <mxPoint x="40.370000000000005" as="sourcePoint" />
            <mxPoint x="79.63" as="targetPoint" />
          </mxGeometry>
        </mxCell>
        <mxCell id="oi3orjpOED1Jghpx1w8p-188" value="" style="endArrow=none;html=1;rounded=0;" parent="oi3orjpOED1Jghpx1w8p-185" edge="1">
          <mxGeometry width="50" height="50" relative="1" as="geometry">
            <mxPoint x="10.370000000000005" as="sourcePoint" />
            <mxPoint x="49.629999999999995" as="targetPoint" />
          </mxGeometry>
        </mxCell>
        <mxCell id="oi3orjpOED1Jghpx1w8p-190" value="" style="group" parent="1" vertex="1" connectable="0">
          <mxGeometry x="320" y="890" width="159.26" as="geometry" />
        </mxCell>
        <mxCell id="oi3orjpOED1Jghpx1w8p-191" value="" style="group" parent="oi3orjpOED1Jghpx1w8p-190" vertex="1" connectable="0">
          <mxGeometry width="79.63" as="geometry" />
        </mxCell>
        <mxCell id="oi3orjpOED1Jghpx1w8p-192" value="" style="endArrow=none;html=1;rounded=0;" parent="oi3orjpOED1Jghpx1w8p-191" edge="1">
          <mxGeometry width="50" height="50" relative="1" as="geometry">
            <mxPoint as="sourcePoint" />
            <mxPoint x="39.25999999999999" as="targetPoint" />
          </mxGeometry>
        </mxCell>
        <mxCell id="oi3orjpOED1Jghpx1w8p-193" value="" style="endArrow=none;html=1;rounded=0;" parent="oi3orjpOED1Jghpx1w8p-191" edge="1">
          <mxGeometry width="50" height="50" relative="1" as="geometry">
            <mxPoint x="40.370000000000005" as="sourcePoint" />
            <mxPoint x="79.63" as="targetPoint" />
          </mxGeometry>
        </mxCell>
        <mxCell id="oi3orjpOED1Jghpx1w8p-194" value="" style="endArrow=none;html=1;rounded=0;" parent="oi3orjpOED1Jghpx1w8p-191" edge="1">
          <mxGeometry width="50" height="50" relative="1" as="geometry">
            <mxPoint x="10.370000000000005" as="sourcePoint" />
            <mxPoint x="49.629999999999995" as="targetPoint" />
          </mxGeometry>
        </mxCell>
        <mxCell id="oi3orjpOED1Jghpx1w8p-195" value="" style="group" parent="oi3orjpOED1Jghpx1w8p-190" vertex="1" connectable="0">
          <mxGeometry x="79.63" width="79.63" as="geometry" />
        </mxCell>
        <mxCell id="oi3orjpOED1Jghpx1w8p-196" value="" style="endArrow=none;html=1;rounded=0;" parent="oi3orjpOED1Jghpx1w8p-195" edge="1">
          <mxGeometry width="50" height="50" relative="1" as="geometry">
            <mxPoint as="sourcePoint" />
            <mxPoint x="39.25999999999999" as="targetPoint" />
          </mxGeometry>
        </mxCell>
        <mxCell id="oi3orjpOED1Jghpx1w8p-197" value="" style="endArrow=none;html=1;rounded=0;" parent="oi3orjpOED1Jghpx1w8p-195" edge="1">
          <mxGeometry width="50" height="50" relative="1" as="geometry">
            <mxPoint x="40.370000000000005" as="sourcePoint" />
            <mxPoint x="79.63" as="targetPoint" />
          </mxGeometry>
        </mxCell>
        <mxCell id="oi3orjpOED1Jghpx1w8p-198" value="" style="endArrow=none;html=1;rounded=0;" parent="oi3orjpOED1Jghpx1w8p-195" edge="1">
          <mxGeometry width="50" height="50" relative="1" as="geometry">
            <mxPoint x="10.370000000000005" as="sourcePoint" />
            <mxPoint x="49.629999999999995" as="targetPoint" />
          </mxGeometry>
        </mxCell>
        <mxCell id="oi3orjpOED1Jghpx1w8p-199" value="" style="group" parent="1" vertex="1" connectable="0">
          <mxGeometry x="480" y="850" width="159.26" as="geometry" />
        </mxCell>
        <mxCell id="oi3orjpOED1Jghpx1w8p-200" value="" style="group" parent="oi3orjpOED1Jghpx1w8p-199" vertex="1" connectable="0">
          <mxGeometry width="79.63" as="geometry" />
        </mxCell>
        <mxCell id="oi3orjpOED1Jghpx1w8p-201" value="" style="endArrow=none;html=1;rounded=0;" parent="oi3orjpOED1Jghpx1w8p-200" edge="1">
          <mxGeometry width="50" height="50" relative="1" as="geometry">
            <mxPoint as="sourcePoint" />
            <mxPoint x="39.25999999999999" as="targetPoint" />
          </mxGeometry>
        </mxCell>
        <mxCell id="oi3orjpOED1Jghpx1w8p-202" value="" style="endArrow=none;html=1;rounded=0;" parent="oi3orjpOED1Jghpx1w8p-200" edge="1">
          <mxGeometry width="50" height="50" relative="1" as="geometry">
            <mxPoint x="40.370000000000005" as="sourcePoint" />
            <mxPoint x="79.63" as="targetPoint" />
          </mxGeometry>
        </mxCell>
        <mxCell id="oi3orjpOED1Jghpx1w8p-203" value="" style="endArrow=none;html=1;rounded=0;" parent="oi3orjpOED1Jghpx1w8p-200" edge="1">
          <mxGeometry width="50" height="50" relative="1" as="geometry">
            <mxPoint x="10.370000000000005" as="sourcePoint" />
            <mxPoint x="49.629999999999995" as="targetPoint" />
          </mxGeometry>
        </mxCell>
        <mxCell id="oi3orjpOED1Jghpx1w8p-204" value="" style="group" parent="oi3orjpOED1Jghpx1w8p-199" vertex="1" connectable="0">
          <mxGeometry x="79.63" width="79.63" as="geometry" />
        </mxCell>
        <mxCell id="oi3orjpOED1Jghpx1w8p-205" value="" style="endArrow=none;html=1;rounded=0;" parent="oi3orjpOED1Jghpx1w8p-204" edge="1">
          <mxGeometry width="50" height="50" relative="1" as="geometry">
            <mxPoint as="sourcePoint" />
            <mxPoint x="39.25999999999999" as="targetPoint" />
          </mxGeometry>
        </mxCell>
        <mxCell id="oi3orjpOED1Jghpx1w8p-206" value="" style="endArrow=none;html=1;rounded=0;" parent="oi3orjpOED1Jghpx1w8p-204" edge="1">
          <mxGeometry width="50" height="50" relative="1" as="geometry">
            <mxPoint x="40.370000000000005" as="sourcePoint" />
            <mxPoint x="79.63" as="targetPoint" />
          </mxGeometry>
        </mxCell>
        <mxCell id="oi3orjpOED1Jghpx1w8p-207" value="" style="endArrow=none;html=1;rounded=0;" parent="oi3orjpOED1Jghpx1w8p-204" edge="1">
          <mxGeometry width="50" height="50" relative="1" as="geometry">
            <mxPoint x="10.370000000000005" as="sourcePoint" />
            <mxPoint x="49.629999999999995" as="targetPoint" />
          </mxGeometry>
        </mxCell>
        <mxCell id="oi3orjpOED1Jghpx1w8p-208" value="" style="group" parent="1" vertex="1" connectable="0">
          <mxGeometry x="640" y="890" width="50" as="geometry" />
        </mxCell>
        <mxCell id="oi3orjpOED1Jghpx1w8p-209" value="" style="group" parent="oi3orjpOED1Jghpx1w8p-208" vertex="1" connectable="0">
          <mxGeometry width="25" as="geometry" />
        </mxCell>
        <mxCell id="oi3orjpOED1Jghpx1w8p-210" value="" style="endArrow=none;html=1;rounded=0;" parent="oi3orjpOED1Jghpx1w8p-209" edge="1">
          <mxGeometry width="50" height="50" relative="1" as="geometry">
            <mxPoint as="sourcePoint" />
            <mxPoint x="12.325756624387791" as="targetPoint" />
          </mxGeometry>
        </mxCell>
        <mxCell id="oi3orjpOED1Jghpx1w8p-211" value="" style="endArrow=none;html=1;rounded=0;" parent="oi3orjpOED1Jghpx1w8p-209" edge="1">
          <mxGeometry width="50" height="50" relative="1" as="geometry">
            <mxPoint x="12.674243375612209" as="sourcePoint" />
            <mxPoint x="25" as="targetPoint" />
          </mxGeometry>
        </mxCell>
        <mxCell id="oi3orjpOED1Jghpx1w8p-212" value="" style="endArrow=none;html=1;rounded=0;" parent="oi3orjpOED1Jghpx1w8p-209" edge="1">
          <mxGeometry width="50" height="50" relative="1" as="geometry">
            <mxPoint x="3.2556825317091564" as="sourcePoint" />
            <mxPoint x="15.581439156096948" as="targetPoint" />
          </mxGeometry>
        </mxCell>
        <mxCell id="oi3orjpOED1Jghpx1w8p-213" value="" style="group" parent="oi3orjpOED1Jghpx1w8p-208" vertex="1" connectable="0">
          <mxGeometry x="25" width="25" as="geometry" />
        </mxCell>
        <mxCell id="oi3orjpOED1Jghpx1w8p-214" value="" style="endArrow=none;html=1;rounded=0;" parent="oi3orjpOED1Jghpx1w8p-213" edge="1">
          <mxGeometry width="50" height="50" relative="1" as="geometry">
            <mxPoint as="sourcePoint" />
            <mxPoint x="12.325756624387791" as="targetPoint" />
          </mxGeometry>
        </mxCell>
        <mxCell id="oi3orjpOED1Jghpx1w8p-215" value="" style="endArrow=none;html=1;rounded=0;" parent="oi3orjpOED1Jghpx1w8p-213" edge="1">
          <mxGeometry width="50" height="50" relative="1" as="geometry">
            <mxPoint x="12.674243375612209" as="sourcePoint" />
            <mxPoint x="25" as="targetPoint" />
          </mxGeometry>
        </mxCell>
        <mxCell id="oi3orjpOED1Jghpx1w8p-216" value="" style="endArrow=none;html=1;rounded=0;" parent="oi3orjpOED1Jghpx1w8p-213" edge="1">
          <mxGeometry width="50" height="50" relative="1" as="geometry">
            <mxPoint x="3.2556825317091564" as="sourcePoint" />
            <mxPoint x="15.581439156096948" as="targetPoint" />
          </mxGeometry>
        </mxCell>
        <mxCell id="oi3orjpOED1Jghpx1w8p-217" value="" style="endArrow=none;html=1;rounded=0;" parent="1" edge="1">
          <mxGeometry width="50" height="50" relative="1" as="geometry">
            <mxPoint x="639" y="890" as="sourcePoint" />
            <mxPoint x="639" y="850" as="targetPoint" />
          </mxGeometry>
        </mxCell>
        <mxCell id="oi3orjpOED1Jghpx1w8p-218" value="" style="endArrow=none;html=1;rounded=0;" parent="1" edge="1">
          <mxGeometry width="50" height="50" relative="1" as="geometry">
            <mxPoint x="479" y="890" as="sourcePoint" />
            <mxPoint x="479" y="850" as="targetPoint" />
          </mxGeometry>
        </mxCell>
        <mxCell id="oi3orjpOED1Jghpx1w8p-219" value="" style="endArrow=none;html=1;rounded=0;" parent="1" edge="1">
          <mxGeometry width="50" height="50" relative="1" as="geometry">
            <mxPoint x="319" y="890" as="sourcePoint" />
            <mxPoint x="319" y="850" as="targetPoint" />
          </mxGeometry>
        </mxCell>
        <mxCell id="oi3orjpOED1Jghpx1w8p-220" value="" style="endArrow=none;html=1;rounded=0;" parent="1" edge="1">
          <mxGeometry width="50" height="50" relative="1" as="geometry">
            <mxPoint x="159" y="890" as="sourcePoint" />
            <mxPoint x="159" y="850" as="targetPoint" />
          </mxGeometry>
        </mxCell>
        <mxCell id="oi3orjpOED1Jghpx1w8p-221" value="&lt;font style=&quot;font-size: 25px;&quot;&gt;CLK&lt;/font&gt;" style="text;html=1;strokeColor=none;fillColor=none;align=center;verticalAlign=middle;whiteSpace=wrap;rounded=0;" parent="1" vertex="1">
          <mxGeometry y="645.5" width="60" height="30" as="geometry" />
        </mxCell>
        <mxCell id="oi3orjpOED1Jghpx1w8p-222" value="&lt;font style=&quot;font-size: 25px;&quot;&gt;D&lt;/font&gt;&lt;font style=&quot;font-size: 14px;&quot;&gt;0&lt;/font&gt;" style="text;html=1;strokeColor=none;fillColor=none;align=center;verticalAlign=middle;whiteSpace=wrap;rounded=0;" parent="1" vertex="1">
          <mxGeometry y="730" width="60" height="30" as="geometry" />
        </mxCell>
        <mxCell id="oi3orjpOED1Jghpx1w8p-223" value="&lt;font style=&quot;font-size: 25px;&quot;&gt;Q&lt;/font&gt;&lt;font style=&quot;font-size: 14px;&quot;&gt;0&lt;/font&gt;" style="text;html=1;strokeColor=none;fillColor=none;align=center;verticalAlign=middle;whiteSpace=wrap;rounded=0;" parent="1" vertex="1">
          <mxGeometry y="800" width="60" height="30" as="geometry" />
        </mxCell>
        <mxCell id="oi3orjpOED1Jghpx1w8p-224" value="&lt;font style=&quot;font-size: 25px;&quot;&gt;Q&lt;/font&gt;&lt;font style=&quot;font-size: 14px;&quot;&gt;1&lt;/font&gt;" style="text;html=1;strokeColor=none;fillColor=none;align=center;verticalAlign=middle;whiteSpace=wrap;rounded=0;" parent="1" vertex="1">
          <mxGeometry y="860" width="60" height="30" as="geometry" />
        </mxCell>
        <mxCell id="oi3orjpOED1Jghpx1w8p-225" value="" style="ellipse;whiteSpace=wrap;html=1;aspect=fixed;" parent="1" vertex="1">
          <mxGeometry x="174" y="1294" width="59" height="59" as="geometry" />
        </mxCell>
        <mxCell id="oi3orjpOED1Jghpx1w8p-226" value="&lt;font style=&quot;&quot;&gt;&lt;span style=&quot;font-size: 20px;&quot;&gt;Q&lt;/span&gt;&lt;font style=&quot;font-size: 14px;&quot;&gt;1&lt;/font&gt;&lt;span style=&quot;font-size: 20px;&quot;&gt;Q&lt;/span&gt;&lt;font style=&quot;font-size: 13px;&quot;&gt;0&lt;/font&gt;&lt;/font&gt;" style="text;html=1;strokeColor=none;fillColor=none;align=center;verticalAlign=middle;whiteSpace=wrap;rounded=0;" parent="1" vertex="1">
          <mxGeometry x="173" y="1308" width="60" height="30" as="geometry" />
        </mxCell>
        <mxCell id="oi3orjpOED1Jghpx1w8p-227" value="" style="ellipse;whiteSpace=wrap;html=1;aspect=fixed;" parent="1" vertex="1">
          <mxGeometry x="149" y="1402" width="59" height="59" as="geometry" />
        </mxCell>
        <mxCell id="oi3orjpOED1Jghpx1w8p-235" style="edgeStyle=orthogonalEdgeStyle;rounded=0;orthogonalLoop=1;jettySize=auto;html=1;exitX=1;exitY=0.5;exitDx=0;exitDy=0;" parent="1" source="oi3orjpOED1Jghpx1w8p-228" target="oi3orjpOED1Jghpx1w8p-230" edge="1">
          <mxGeometry relative="1" as="geometry" />
        </mxCell>
        <mxCell id="oi3orjpOED1Jghpx1w8p-228" value="&lt;span style=&quot;font-size: 20px;&quot;&gt;00&lt;/span&gt;" style="text;html=1;strokeColor=none;fillColor=none;align=center;verticalAlign=middle;whiteSpace=wrap;rounded=0;" parent="1" vertex="1">
          <mxGeometry x="148" y="1416.5" width="60" height="30" as="geometry" />
        </mxCell>
        <mxCell id="oi3orjpOED1Jghpx1w8p-229" value="" style="ellipse;whiteSpace=wrap;html=1;aspect=fixed;" parent="1" vertex="1">
          <mxGeometry x="240" y="1402" width="59" height="59" as="geometry" />
        </mxCell>
        <mxCell id="oi3orjpOED1Jghpx1w8p-236" style="edgeStyle=orthogonalEdgeStyle;rounded=0;orthogonalLoop=1;jettySize=auto;html=1;exitX=1;exitY=0.5;exitDx=0;exitDy=0;" parent="1" source="oi3orjpOED1Jghpx1w8p-230" target="oi3orjpOED1Jghpx1w8p-232" edge="1">
          <mxGeometry relative="1" as="geometry" />
        </mxCell>
        <mxCell id="oi3orjpOED1Jghpx1w8p-230" value="&lt;span style=&quot;font-size: 20px;&quot;&gt;11&lt;/span&gt;" style="text;html=1;strokeColor=none;fillColor=none;align=center;verticalAlign=middle;whiteSpace=wrap;rounded=0;" parent="1" vertex="1">
          <mxGeometry x="239" y="1416.5" width="60" height="30" as="geometry" />
        </mxCell>
        <mxCell id="oi3orjpOED1Jghpx1w8p-231" value="" style="ellipse;whiteSpace=wrap;html=1;aspect=fixed;" parent="1" vertex="1">
          <mxGeometry x="335" y="1402" width="59" height="59" as="geometry" />
        </mxCell>
        <mxCell id="oi3orjpOED1Jghpx1w8p-237" style="edgeStyle=orthogonalEdgeStyle;rounded=0;orthogonalLoop=1;jettySize=auto;html=1;exitX=1;exitY=0.5;exitDx=0;exitDy=0;entryX=0;entryY=0.5;entryDx=0;entryDy=0;" parent="1" source="oi3orjpOED1Jghpx1w8p-232" target="oi3orjpOED1Jghpx1w8p-234" edge="1">
          <mxGeometry relative="1" as="geometry" />
        </mxCell>
        <mxCell id="oi3orjpOED1Jghpx1w8p-232" value="&lt;span style=&quot;font-size: 20px;&quot;&gt;10&lt;/span&gt;" style="text;html=1;strokeColor=none;fillColor=none;align=center;verticalAlign=middle;whiteSpace=wrap;rounded=0;" parent="1" vertex="1">
          <mxGeometry x="334" y="1416.5" width="60" height="30" as="geometry" />
        </mxCell>
        <mxCell id="oi3orjpOED1Jghpx1w8p-233" value="" style="ellipse;whiteSpace=wrap;html=1;aspect=fixed;" parent="1" vertex="1">
          <mxGeometry x="424" y="1402" width="59" height="59" as="geometry" />
        </mxCell>
        <mxCell id="oi3orjpOED1Jghpx1w8p-238" style="edgeStyle=orthogonalEdgeStyle;rounded=0;orthogonalLoop=1;jettySize=auto;html=1;exitX=1;exitY=0.5;exitDx=0;exitDy=0;entryX=0;entryY=0.5;entryDx=0;entryDy=0;" parent="1" source="oi3orjpOED1Jghpx1w8p-234" target="oi3orjpOED1Jghpx1w8p-228" edge="1">
          <mxGeometry relative="1" as="geometry">
            <Array as="points">
              <mxPoint x="503" y="1432" />
              <mxPoint x="503" y="1507" />
              <mxPoint x="128" y="1507" />
              <mxPoint x="128" y="1432" />
            </Array>
          </mxGeometry>
        </mxCell>
        <mxCell id="oi3orjpOED1Jghpx1w8p-234" value="&lt;span style=&quot;font-size: 20px;&quot;&gt;01&lt;/span&gt;" style="text;html=1;strokeColor=none;fillColor=none;align=center;verticalAlign=middle;whiteSpace=wrap;rounded=0;" parent="1" vertex="1">
          <mxGeometry x="423" y="1416.5" width="60" height="30" as="geometry" />
        </mxCell>
        <mxCell id="oi3orjpOED1Jghpx1w8p-239" value="&lt;font style=&quot;font-size: 20px;&quot;&gt;/&lt;/font&gt;" style="text;html=1;strokeColor=none;fillColor=none;align=center;verticalAlign=middle;whiteSpace=wrap;rounded=0;" parent="1" vertex="1">
          <mxGeometry x="218" y="1324" width="60" height="30" as="geometry" />
        </mxCell>
        <mxCell id="oi3orjpOED1Jghpx1w8p-240" value="&lt;font style=&quot;font-size: 20px;&quot;&gt;/&lt;/font&gt;" style="text;html=1;strokeColor=none;fillColor=none;align=center;verticalAlign=middle;whiteSpace=wrap;rounded=0;" parent="1" vertex="1">
          <mxGeometry x="190" y="1403" width="60" height="30" as="geometry" />
        </mxCell>
        <mxCell id="oi3orjpOED1Jghpx1w8p-241" value="&lt;font style=&quot;font-size: 20px;&quot;&gt;/&lt;/font&gt;" style="text;html=1;strokeColor=none;fillColor=none;align=center;verticalAlign=middle;whiteSpace=wrap;rounded=0;" parent="1" vertex="1">
          <mxGeometry x="285" y="1401" width="60" height="30" as="geometry" />
        </mxCell>
        <mxCell id="oi3orjpOED1Jghpx1w8p-242" value="&lt;font style=&quot;font-size: 20px;&quot;&gt;/&lt;/font&gt;" style="text;html=1;strokeColor=none;fillColor=none;align=center;verticalAlign=middle;whiteSpace=wrap;rounded=0;" parent="1" vertex="1">
          <mxGeometry x="379" y="1404" width="60" height="30" as="geometry" />
        </mxCell>
        <mxCell id="oi3orjpOED1Jghpx1w8p-243" value="&lt;font style=&quot;font-size: 20px;&quot;&gt;/&lt;/font&gt;" style="text;html=1;strokeColor=none;fillColor=none;align=center;verticalAlign=middle;whiteSpace=wrap;rounded=0;" parent="1" vertex="1">
          <mxGeometry x="288" y="1478" width="60" height="30" as="geometry" />
        </mxCell>
        <mxCell id="OAkcocwWK6vy3Zn0Hzrl-1" value="" style="ellipse;whiteSpace=wrap;html=1;aspect=fixed;" parent="1" vertex="1">
          <mxGeometry x="594" y="1290" width="73" height="73" as="geometry" />
        </mxCell>
        <mxCell id="OAkcocwWK6vy3Zn0Hzrl-2" value="&lt;font style=&quot;&quot;&gt;&lt;span style=&quot;font-size: 20px;&quot;&gt;Q&lt;/span&gt;0&lt;span style=&quot;font-size: 20px;&quot;&gt;Q&lt;/span&gt;&lt;font style=&quot;font-size: 12px;&quot;&gt;1&lt;/font&gt;&lt;span style=&quot;font-size: 20px;&quot;&gt;Q&lt;/span&gt;&lt;font style=&quot;font-size: 12px;&quot;&gt;2&lt;/font&gt;&lt;/font&gt;" style="text;html=1;strokeColor=none;fillColor=none;align=center;verticalAlign=middle;whiteSpace=wrap;rounded=0;" parent="1" vertex="1">
          <mxGeometry x="601" y="1312" width="60" height="30" as="geometry" />
        </mxCell>
        <mxCell id="OAkcocwWK6vy3Zn0Hzrl-3" value="&lt;font style=&quot;font-size: 20px;&quot;&gt;X/Z&lt;/font&gt;" style="text;html=1;strokeColor=none;fillColor=none;align=center;verticalAlign=middle;whiteSpace=wrap;rounded=0;" parent="1" vertex="1">
          <mxGeometry x="677" y="1329" width="60" height="30" as="geometry" />
        </mxCell>
        <mxCell id="OAkcocwWK6vy3Zn0Hzrl-4" value="" style="ellipse;whiteSpace=wrap;html=1;aspect=fixed;" parent="1" vertex="1">
          <mxGeometry x="610" y="1440" width="70" height="70" as="geometry" />
        </mxCell>
        <mxCell id="OAkcocwWK6vy3Zn0Hzrl-5" value="&lt;span style=&quot;font-size: 20px;&quot;&gt;000&lt;/span&gt;" style="text;html=1;strokeColor=none;fillColor=none;align=center;verticalAlign=middle;whiteSpace=wrap;rounded=0;" parent="1" vertex="1">
          <mxGeometry x="616" y="1460" width="60" height="30" as="geometry" />
        </mxCell>
        <mxCell id="OAkcocwWK6vy3Zn0Hzrl-6" value="" style="ellipse;whiteSpace=wrap;html=1;aspect=fixed;" parent="1" vertex="1">
          <mxGeometry x="710" y="1440" width="70" height="70" as="geometry" />
        </mxCell>
        <mxCell id="OAkcocwWK6vy3Zn0Hzrl-7" value="&lt;span style=&quot;font-size: 20px;&quot;&gt;100&lt;/span&gt;" style="text;html=1;strokeColor=none;fillColor=none;align=center;verticalAlign=middle;whiteSpace=wrap;rounded=0;" parent="1" vertex="1">
          <mxGeometry x="716" y="1460" width="60" height="30" as="geometry" />
        </mxCell>
        <mxCell id="OAkcocwWK6vy3Zn0Hzrl-8" value="" style="ellipse;whiteSpace=wrap;html=1;aspect=fixed;" parent="1" vertex="1">
          <mxGeometry x="810" y="1440" width="70" height="70" as="geometry" />
        </mxCell>
        <mxCell id="OAkcocwWK6vy3Zn0Hzrl-9" value="&lt;span style=&quot;font-size: 20px;&quot;&gt;110&lt;/span&gt;" style="text;html=1;strokeColor=none;fillColor=none;align=center;verticalAlign=middle;whiteSpace=wrap;rounded=0;" parent="1" vertex="1">
          <mxGeometry x="816" y="1460" width="60" height="30" as="geometry" />
        </mxCell>
        <mxCell id="OAkcocwWK6vy3Zn0Hzrl-10" value="" style="ellipse;whiteSpace=wrap;html=1;aspect=fixed;" parent="1" vertex="1">
          <mxGeometry x="810" y="1540" width="70" height="70" as="geometry" />
        </mxCell>
        <mxCell id="OAkcocwWK6vy3Zn0Hzrl-11" value="&lt;span style=&quot;font-size: 20px;&quot;&gt;111&lt;/span&gt;" style="text;html=1;strokeColor=none;fillColor=none;align=center;verticalAlign=middle;whiteSpace=wrap;rounded=0;" parent="1" vertex="1">
          <mxGeometry x="814" y="1560" width="60" height="30" as="geometry" />
        </mxCell>
        <mxCell id="OAkcocwWK6vy3Zn0Hzrl-12" value="" style="ellipse;whiteSpace=wrap;html=1;aspect=fixed;" parent="1" vertex="1">
          <mxGeometry x="710" y="1540" width="70" height="70" as="geometry" />
        </mxCell>
        <mxCell id="OAkcocwWK6vy3Zn0Hzrl-13" value="&lt;span style=&quot;font-size: 20px;&quot;&gt;011&lt;/span&gt;" style="text;html=1;strokeColor=none;fillColor=none;align=center;verticalAlign=middle;whiteSpace=wrap;rounded=0;" parent="1" vertex="1">
          <mxGeometry x="714" y="1560" width="60" height="30" as="geometry" />
        </mxCell>
        <mxCell id="OAkcocwWK6vy3Zn0Hzrl-14" value="" style="ellipse;whiteSpace=wrap;html=1;aspect=fixed;" parent="1" vertex="1">
          <mxGeometry x="610" y="1540" width="70" height="70" as="geometry" />
        </mxCell>
        <mxCell id="OAkcocwWK6vy3Zn0Hzrl-15" value="&lt;span style=&quot;font-size: 20px;&quot;&gt;001&lt;/span&gt;" style="text;html=1;strokeColor=none;fillColor=none;align=center;verticalAlign=middle;whiteSpace=wrap;rounded=0;" parent="1" vertex="1">
          <mxGeometry x="614" y="1560" width="60" height="30" as="geometry" />
        </mxCell>
        <mxCell id="OAkcocwWK6vy3Zn0Hzrl-16" value="" style="ellipse;whiteSpace=wrap;html=1;aspect=fixed;" parent="1" vertex="1">
          <mxGeometry x="610" y="1640" width="70" height="70" as="geometry" />
        </mxCell>
        <mxCell id="OAkcocwWK6vy3Zn0Hzrl-17" value="&lt;span style=&quot;font-size: 20px;&quot;&gt;010&lt;/span&gt;" style="text;html=1;strokeColor=none;fillColor=none;align=center;verticalAlign=middle;whiteSpace=wrap;rounded=0;" parent="1" vertex="1">
          <mxGeometry x="614" y="1660" width="60" height="30" as="geometry" />
        </mxCell>
        <mxCell id="OAkcocwWK6vy3Zn0Hzrl-18" value="" style="ellipse;whiteSpace=wrap;html=1;aspect=fixed;" parent="1" vertex="1">
          <mxGeometry x="710" y="1640" width="70" height="70" as="geometry" />
        </mxCell>
        <mxCell id="OAkcocwWK6vy3Zn0Hzrl-19" value="&lt;span style=&quot;font-size: 20px;&quot;&gt;101&lt;/span&gt;" style="text;html=1;strokeColor=none;fillColor=none;align=center;verticalAlign=middle;whiteSpace=wrap;rounded=0;" parent="1" vertex="1">
          <mxGeometry x="714" y="1660" width="60" height="30" as="geometry" />
        </mxCell>
        <mxCell id="OAkcocwWK6vy3Zn0Hzrl-21" value="" style="endArrow=classic;html=1;rounded=0;" parent="1" edge="1">
          <mxGeometry width="50" height="50" relative="1" as="geometry">
            <mxPoint x="680" y="1476" as="sourcePoint" />
            <mxPoint x="713" y="1476" as="targetPoint" />
          </mxGeometry>
        </mxCell>
        <mxCell id="OAkcocwWK6vy3Zn0Hzrl-22" value="" style="endArrow=classic;html=1;rounded=0;" parent="1" edge="1">
          <mxGeometry width="50" height="50" relative="1" as="geometry">
            <mxPoint x="780" y="1476" as="sourcePoint" />
            <mxPoint x="813" y="1476" as="targetPoint" />
          </mxGeometry>
        </mxCell>
        <mxCell id="OAkcocwWK6vy3Zn0Hzrl-23" value="" style="endArrow=classic;html=1;rounded=0;" parent="1" edge="1">
          <mxGeometry width="50" height="50" relative="1" as="geometry">
            <mxPoint x="813" y="1576" as="sourcePoint" />
            <mxPoint x="780" y="1576" as="targetPoint" />
          </mxGeometry>
        </mxCell>
        <mxCell id="OAkcocwWK6vy3Zn0Hzrl-24" value="" style="endArrow=classic;html=1;rounded=0;" parent="1" edge="1">
          <mxGeometry width="50" height="50" relative="1" as="geometry">
            <mxPoint x="713" y="1576" as="sourcePoint" />
            <mxPoint x="680" y="1576" as="targetPoint" />
          </mxGeometry>
        </mxCell>
        <mxCell id="OAkcocwWK6vy3Zn0Hzrl-25" value="" style="endArrow=classic;html=1;rounded=0;" parent="1" edge="1">
          <mxGeometry width="50" height="50" relative="1" as="geometry">
            <mxPoint x="847" y="1513" as="sourcePoint" />
            <mxPoint x="847" y="1539" as="targetPoint" />
          </mxGeometry>
        </mxCell>
        <mxCell id="OAkcocwWK6vy3Zn0Hzrl-26" value="" style="endArrow=classic;html=1;rounded=0;" parent="1" edge="1">
          <mxGeometry width="50" height="50" relative="1" as="geometry">
            <mxPoint x="645" y="1538" as="sourcePoint" />
            <mxPoint x="645" y="1512" as="targetPoint" />
          </mxGeometry>
        </mxCell>
        <mxCell id="OAkcocwWK6vy3Zn0Hzrl-27" value="" style="endArrow=classic;html=1;rounded=0;" parent="1" edge="1">
          <mxGeometry width="50" height="50" relative="1" as="geometry">
            <mxPoint x="679" y="1671" as="sourcePoint" />
            <mxPoint x="712" y="1671" as="targetPoint" />
          </mxGeometry>
        </mxCell>
        <mxCell id="OAkcocwWK6vy3Zn0Hzrl-28" value="" style="endArrow=classic;html=1;rounded=0;" parent="1" edge="1">
          <mxGeometry width="50" height="50" relative="1" as="geometry">
            <mxPoint x="712" y="1682" as="sourcePoint" />
            <mxPoint x="679" y="1682" as="targetPoint" />
          </mxGeometry>
        </mxCell>
        <mxCell id="OAkcocwWK6vy3Zn0Hzrl-29" value="" style="ellipse;whiteSpace=wrap;html=1;aspect=fixed;" parent="1" vertex="1">
          <mxGeometry x="960" y="1440" width="70" height="70" as="geometry" />
        </mxCell>
        <mxCell id="OAkcocwWK6vy3Zn0Hzrl-30" value="&lt;span style=&quot;font-size: 20px;&quot;&gt;000&lt;/span&gt;" style="text;html=1;strokeColor=none;fillColor=none;align=center;verticalAlign=middle;whiteSpace=wrap;rounded=0;" parent="1" vertex="1">
          <mxGeometry x="966" y="1460" width="60" height="30" as="geometry" />
        </mxCell>
        <mxCell id="OAkcocwWK6vy3Zn0Hzrl-31" value="" style="ellipse;whiteSpace=wrap;html=1;aspect=fixed;" parent="1" vertex="1">
          <mxGeometry x="1060" y="1440" width="70" height="70" as="geometry" />
        </mxCell>
        <mxCell id="OAkcocwWK6vy3Zn0Hzrl-32" value="&lt;span style=&quot;font-size: 20px;&quot;&gt;100&lt;/span&gt;" style="text;html=1;strokeColor=none;fillColor=none;align=center;verticalAlign=middle;whiteSpace=wrap;rounded=0;" parent="1" vertex="1">
          <mxGeometry x="1066" y="1460" width="60" height="30" as="geometry" />
        </mxCell>
        <mxCell id="OAkcocwWK6vy3Zn0Hzrl-33" value="" style="ellipse;whiteSpace=wrap;html=1;aspect=fixed;" parent="1" vertex="1">
          <mxGeometry x="1160" y="1440" width="70" height="70" as="geometry" />
        </mxCell>
        <mxCell id="OAkcocwWK6vy3Zn0Hzrl-34" value="&lt;span style=&quot;font-size: 20px;&quot;&gt;110&lt;/span&gt;" style="text;html=1;strokeColor=none;fillColor=none;align=center;verticalAlign=middle;whiteSpace=wrap;rounded=0;" parent="1" vertex="1">
          <mxGeometry x="1166" y="1460" width="60" height="30" as="geometry" />
        </mxCell>
        <mxCell id="OAkcocwWK6vy3Zn0Hzrl-35" value="" style="ellipse;whiteSpace=wrap;html=1;aspect=fixed;" parent="1" vertex="1">
          <mxGeometry x="1160" y="1540" width="70" height="70" as="geometry" />
        </mxCell>
        <mxCell id="OAkcocwWK6vy3Zn0Hzrl-36" value="&lt;span style=&quot;font-size: 20px;&quot;&gt;111&lt;/span&gt;" style="text;html=1;strokeColor=none;fillColor=none;align=center;verticalAlign=middle;whiteSpace=wrap;rounded=0;" parent="1" vertex="1">
          <mxGeometry x="1164" y="1560" width="60" height="30" as="geometry" />
        </mxCell>
        <mxCell id="OAkcocwWK6vy3Zn0Hzrl-37" value="" style="ellipse;whiteSpace=wrap;html=1;aspect=fixed;" parent="1" vertex="1">
          <mxGeometry x="1060" y="1540" width="70" height="70" as="geometry" />
        </mxCell>
        <mxCell id="OAkcocwWK6vy3Zn0Hzrl-38" value="&lt;span style=&quot;font-size: 20px;&quot;&gt;011&lt;/span&gt;" style="text;html=1;strokeColor=none;fillColor=none;align=center;verticalAlign=middle;whiteSpace=wrap;rounded=0;" parent="1" vertex="1">
          <mxGeometry x="1064" y="1560" width="60" height="30" as="geometry" />
        </mxCell>
        <mxCell id="OAkcocwWK6vy3Zn0Hzrl-39" value="" style="ellipse;whiteSpace=wrap;html=1;aspect=fixed;" parent="1" vertex="1">
          <mxGeometry x="960" y="1540" width="70" height="70" as="geometry" />
        </mxCell>
        <mxCell id="OAkcocwWK6vy3Zn0Hzrl-40" value="&lt;span style=&quot;font-size: 20px;&quot;&gt;001&lt;/span&gt;" style="text;html=1;strokeColor=none;fillColor=none;align=center;verticalAlign=middle;whiteSpace=wrap;rounded=0;" parent="1" vertex="1">
          <mxGeometry x="964" y="1560" width="60" height="30" as="geometry" />
        </mxCell>
        <mxCell id="OAkcocwWK6vy3Zn0Hzrl-41" value="" style="ellipse;whiteSpace=wrap;html=1;aspect=fixed;" parent="1" vertex="1">
          <mxGeometry x="1260" y="1540" width="70" height="70" as="geometry" />
        </mxCell>
        <mxCell id="OAkcocwWK6vy3Zn0Hzrl-42" value="&lt;span style=&quot;font-size: 20px;&quot;&gt;010&lt;/span&gt;" style="text;html=1;strokeColor=none;fillColor=none;align=center;verticalAlign=middle;whiteSpace=wrap;rounded=0;" parent="1" vertex="1">
          <mxGeometry x="1266" y="1560" width="60" height="30" as="geometry" />
        </mxCell>
        <mxCell id="OAkcocwWK6vy3Zn0Hzrl-43" value="" style="ellipse;whiteSpace=wrap;html=1;aspect=fixed;" parent="1" vertex="1">
          <mxGeometry x="1260" y="1440" width="70" height="70" as="geometry" />
        </mxCell>
        <mxCell id="OAkcocwWK6vy3Zn0Hzrl-44" value="&lt;span style=&quot;font-size: 20px;&quot;&gt;101&lt;/span&gt;" style="text;html=1;strokeColor=none;fillColor=none;align=center;verticalAlign=middle;whiteSpace=wrap;rounded=0;" parent="1" vertex="1">
          <mxGeometry x="1265" y="1461" width="60" height="30" as="geometry" />
        </mxCell>
        <mxCell id="OAkcocwWK6vy3Zn0Hzrl-45" value="" style="endArrow=classic;html=1;rounded=0;" parent="1" edge="1">
          <mxGeometry width="50" height="50" relative="1" as="geometry">
            <mxPoint x="1030" y="1476" as="sourcePoint" />
            <mxPoint x="1063" y="1476" as="targetPoint" />
          </mxGeometry>
        </mxCell>
        <mxCell id="OAkcocwWK6vy3Zn0Hzrl-46" value="" style="endArrow=classic;html=1;rounded=0;" parent="1" edge="1">
          <mxGeometry width="50" height="50" relative="1" as="geometry">
            <mxPoint x="1130" y="1476" as="sourcePoint" />
            <mxPoint x="1163" y="1476" as="targetPoint" />
          </mxGeometry>
        </mxCell>
        <mxCell id="OAkcocwWK6vy3Zn0Hzrl-47" value="" style="endArrow=classic;html=1;rounded=0;" parent="1" edge="1">
          <mxGeometry width="50" height="50" relative="1" as="geometry">
            <mxPoint x="1163" y="1576" as="sourcePoint" />
            <mxPoint x="1130" y="1576" as="targetPoint" />
          </mxGeometry>
        </mxCell>
        <mxCell id="OAkcocwWK6vy3Zn0Hzrl-48" value="" style="endArrow=classic;html=1;rounded=0;" parent="1" edge="1">
          <mxGeometry width="50" height="50" relative="1" as="geometry">
            <mxPoint x="1063" y="1576" as="sourcePoint" />
            <mxPoint x="1030" y="1576" as="targetPoint" />
          </mxGeometry>
        </mxCell>
        <mxCell id="OAkcocwWK6vy3Zn0Hzrl-49" value="" style="endArrow=classic;html=1;rounded=0;" parent="1" edge="1">
          <mxGeometry width="50" height="50" relative="1" as="geometry">
            <mxPoint x="1197" y="1513" as="sourcePoint" />
            <mxPoint x="1197" y="1539" as="targetPoint" />
          </mxGeometry>
        </mxCell>
        <mxCell id="OAkcocwWK6vy3Zn0Hzrl-50" value="" style="endArrow=classic;html=1;rounded=0;" parent="1" edge="1">
          <mxGeometry width="50" height="50" relative="1" as="geometry">
            <mxPoint x="995" y="1538" as="sourcePoint" />
            <mxPoint x="995" y="1512" as="targetPoint" />
          </mxGeometry>
        </mxCell>
        <mxCell id="OAkcocwWK6vy3Zn0Hzrl-51" value="" style="endArrow=classic;html=1;rounded=0;" parent="1" edge="1">
          <mxGeometry width="50" height="50" relative="1" as="geometry">
            <mxPoint x="1029" y="1671" as="sourcePoint" />
            <mxPoint x="1062" y="1671" as="targetPoint" />
          </mxGeometry>
        </mxCell>
        <mxCell id="OAkcocwWK6vy3Zn0Hzrl-52" value="" style="endArrow=classic;html=1;rounded=0;" parent="1" edge="1">
          <mxGeometry width="50" height="50" relative="1" as="geometry">
            <mxPoint x="1262" y="1477" as="sourcePoint" />
            <mxPoint x="1229" y="1477" as="targetPoint" />
          </mxGeometry>
        </mxCell>
        <mxCell id="OAkcocwWK6vy3Zn0Hzrl-53" value="" style="endArrow=classic;html=1;rounded=0;" parent="1" edge="1">
          <mxGeometry width="50" height="50" relative="1" as="geometry">
            <mxPoint x="1295" y="1538" as="sourcePoint" />
            <mxPoint x="1295" y="1512" as="targetPoint" />
          </mxGeometry>
        </mxCell>
        <mxCell id="E4i1Siv4stSAGuv7sPo--1" value="" style="ellipse;whiteSpace=wrap;html=1;aspect=fixed;" vertex="1" parent="1">
          <mxGeometry x="760" y="1020" width="70" height="70" as="geometry" />
        </mxCell>
        <mxCell id="E4i1Siv4stSAGuv7sPo--2" value="&lt;span style=&quot;font-size: 20px;&quot;&gt;001&lt;/span&gt;" style="text;html=1;strokeColor=none;fillColor=none;align=center;verticalAlign=middle;whiteSpace=wrap;rounded=0;" vertex="1" parent="1">
          <mxGeometry x="766" y="1040" width="60" height="30" as="geometry" />
        </mxCell>
        <mxCell id="E4i1Siv4stSAGuv7sPo--3" value="" style="ellipse;whiteSpace=wrap;html=1;aspect=fixed;" vertex="1" parent="1">
          <mxGeometry x="860" y="1020" width="70" height="70" as="geometry" />
        </mxCell>
        <mxCell id="E4i1Siv4stSAGuv7sPo--4" value="&lt;span style=&quot;font-size: 20px;&quot;&gt;100&lt;/span&gt;" style="text;html=1;strokeColor=none;fillColor=none;align=center;verticalAlign=middle;whiteSpace=wrap;rounded=0;" vertex="1" parent="1">
          <mxGeometry x="866" y="1040" width="60" height="30" as="geometry" />
        </mxCell>
        <mxCell id="E4i1Siv4stSAGuv7sPo--9" style="edgeStyle=orthogonalEdgeStyle;rounded=0;orthogonalLoop=1;jettySize=auto;html=1;exitX=0.5;exitY=1;exitDx=0;exitDy=0;" edge="1" parent="1">
          <mxGeometry relative="1" as="geometry">
            <mxPoint x="795" y="1101" as="targetPoint" />
            <mxPoint x="990" y="1091" as="sourcePoint" />
            <Array as="points">
              <mxPoint x="990" y="1136" />
              <mxPoint x="796" y="1136" />
            </Array>
          </mxGeometry>
        </mxCell>
        <mxCell id="E4i1Siv4stSAGuv7sPo--5" value="" style="ellipse;whiteSpace=wrap;html=1;aspect=fixed;" vertex="1" parent="1">
          <mxGeometry x="960" y="1020" width="70" height="70" as="geometry" />
        </mxCell>
        <mxCell id="E4i1Siv4stSAGuv7sPo--6" value="&lt;span style=&quot;font-size: 20px;&quot;&gt;010&lt;/span&gt;" style="text;html=1;strokeColor=none;fillColor=none;align=center;verticalAlign=middle;whiteSpace=wrap;rounded=0;" vertex="1" parent="1">
          <mxGeometry x="966" y="1040" width="60" height="30" as="geometry" />
        </mxCell>
        <mxCell id="E4i1Siv4stSAGuv7sPo--7" value="" style="endArrow=classic;html=1;rounded=0;" edge="1" parent="1">
          <mxGeometry width="50" height="50" relative="1" as="geometry">
            <mxPoint x="830" y="1056" as="sourcePoint" />
            <mxPoint x="863" y="1056" as="targetPoint" />
          </mxGeometry>
        </mxCell>
        <mxCell id="E4i1Siv4stSAGuv7sPo--8" value="" style="endArrow=classic;html=1;rounded=0;" edge="1" parent="1">
          <mxGeometry width="50" height="50" relative="1" as="geometry">
            <mxPoint x="930" y="1056" as="sourcePoint" />
            <mxPoint x="963" y="1056" as="targetPoint" />
          </mxGeometry>
        </mxCell>
        <mxCell id="E4i1Siv4stSAGuv7sPo--10" value="" style="ellipse;whiteSpace=wrap;html=1;aspect=fixed;" vertex="1" parent="1">
          <mxGeometry x="760" y="1160" width="70" height="70" as="geometry" />
        </mxCell>
        <mxCell id="E4i1Siv4stSAGuv7sPo--11" value="&lt;span style=&quot;font-size: 20px;&quot;&gt;101&lt;/span&gt;" style="text;html=1;strokeColor=none;fillColor=none;align=center;verticalAlign=middle;whiteSpace=wrap;rounded=0;" vertex="1" parent="1">
          <mxGeometry x="766" y="1180" width="60" height="30" as="geometry" />
        </mxCell>
        <mxCell id="E4i1Siv4stSAGuv7sPo--12" value="" style="ellipse;whiteSpace=wrap;html=1;aspect=fixed;" vertex="1" parent="1">
          <mxGeometry x="860" y="1160" width="70" height="70" as="geometry" />
        </mxCell>
        <mxCell id="E4i1Siv4stSAGuv7sPo--13" value="&lt;span style=&quot;font-size: 20px;&quot;&gt;110&lt;/span&gt;" style="text;html=1;strokeColor=none;fillColor=none;align=center;verticalAlign=middle;whiteSpace=wrap;rounded=0;" vertex="1" parent="1">
          <mxGeometry x="866" y="1180" width="60" height="30" as="geometry" />
        </mxCell>
        <mxCell id="E4i1Siv4stSAGuv7sPo--14" style="edgeStyle=orthogonalEdgeStyle;rounded=0;orthogonalLoop=1;jettySize=auto;html=1;exitX=0.5;exitY=1;exitDx=0;exitDy=0;" edge="1" parent="1">
          <mxGeometry relative="1" as="geometry">
            <mxPoint x="795" y="1241" as="targetPoint" />
            <mxPoint x="990" y="1231" as="sourcePoint" />
            <Array as="points">
              <mxPoint x="990" y="1276" />
              <mxPoint x="796" y="1276" />
            </Array>
          </mxGeometry>
        </mxCell>
        <mxCell id="E4i1Siv4stSAGuv7sPo--15" value="" style="ellipse;whiteSpace=wrap;html=1;aspect=fixed;" vertex="1" parent="1">
          <mxGeometry x="960" y="1160" width="70" height="70" as="geometry" />
        </mxCell>
        <mxCell id="E4i1Siv4stSAGuv7sPo--16" value="&lt;span style=&quot;font-size: 20px;&quot;&gt;011&lt;/span&gt;" style="text;html=1;strokeColor=none;fillColor=none;align=center;verticalAlign=middle;whiteSpace=wrap;rounded=0;" vertex="1" parent="1">
          <mxGeometry x="966" y="1180" width="60" height="30" as="geometry" />
        </mxCell>
        <mxCell id="E4i1Siv4stSAGuv7sPo--17" value="" style="endArrow=classic;html=1;rounded=0;" edge="1" parent="1">
          <mxGeometry width="50" height="50" relative="1" as="geometry">
            <mxPoint x="830" y="1196" as="sourcePoint" />
            <mxPoint x="863" y="1196" as="targetPoint" />
          </mxGeometry>
        </mxCell>
        <mxCell id="E4i1Siv4stSAGuv7sPo--18" value="" style="endArrow=classic;html=1;rounded=0;" edge="1" parent="1">
          <mxGeometry width="50" height="50" relative="1" as="geometry">
            <mxPoint x="930" y="1196" as="sourcePoint" />
            <mxPoint x="963" y="1196" as="targetPoint" />
          </mxGeometry>
        </mxCell>
        <mxCell id="E4i1Siv4stSAGuv7sPo--19" value="" style="ellipse;whiteSpace=wrap;html=1;aspect=fixed;" vertex="1" parent="1">
          <mxGeometry x="1060" y="1020" width="70" height="70" as="geometry" />
        </mxCell>
        <mxCell id="E4i1Siv4stSAGuv7sPo--20" value="&lt;span style=&quot;font-size: 20px;&quot;&gt;000&lt;/span&gt;" style="text;html=1;strokeColor=none;fillColor=none;align=center;verticalAlign=middle;whiteSpace=wrap;rounded=0;" vertex="1" parent="1">
          <mxGeometry x="1066" y="1040" width="60" height="30" as="geometry" />
        </mxCell>
        <mxCell id="E4i1Siv4stSAGuv7sPo--24" style="edgeStyle=orthogonalEdgeStyle;rounded=0;orthogonalLoop=1;jettySize=auto;html=1;exitX=0.5;exitY=1;exitDx=0;exitDy=0;entryX=1;entryY=0.5;entryDx=0;entryDy=0;" edge="1" parent="1" source="E4i1Siv4stSAGuv7sPo--21" target="E4i1Siv4stSAGuv7sPo--22">
          <mxGeometry relative="1" as="geometry" />
        </mxCell>
        <mxCell id="E4i1Siv4stSAGuv7sPo--21" value="" style="ellipse;whiteSpace=wrap;html=1;aspect=fixed;" vertex="1" parent="1">
          <mxGeometry x="1060" y="1160" width="70" height="70" as="geometry" />
        </mxCell>
        <mxCell id="E4i1Siv4stSAGuv7sPo--22" value="&lt;span style=&quot;font-size: 20px;&quot;&gt;111&lt;/span&gt;" style="text;html=1;strokeColor=none;fillColor=none;align=center;verticalAlign=middle;whiteSpace=wrap;rounded=0;" vertex="1" parent="1">
          <mxGeometry x="1066" y="1180" width="60" height="30" as="geometry" />
        </mxCell>
        <mxCell id="E4i1Siv4stSAGuv7sPo--23" style="edgeStyle=orthogonalEdgeStyle;rounded=0;orthogonalLoop=1;jettySize=auto;html=1;exitX=0.5;exitY=1;exitDx=0;exitDy=0;entryX=1;entryY=0.5;entryDx=0;entryDy=0;" edge="1" parent="1" source="E4i1Siv4stSAGuv7sPo--19" target="E4i1Siv4stSAGuv7sPo--19">
          <mxGeometry relative="1" as="geometry" />
        </mxCell>
        <mxCell id="E4i1Siv4stSAGuv7sPo--25" value="" style="ellipse;whiteSpace=wrap;html=1;aspect=fixed;" vertex="1" parent="1">
          <mxGeometry x="1240" y="1040" width="70" height="70" as="geometry" />
        </mxCell>
        <mxCell id="E4i1Siv4stSAGuv7sPo--26" value="&lt;span style=&quot;font-size: 20px;&quot;&gt;001&lt;/span&gt;" style="text;html=1;strokeColor=none;fillColor=none;align=center;verticalAlign=middle;whiteSpace=wrap;rounded=0;" vertex="1" parent="1">
          <mxGeometry x="1246" y="1060" width="60" height="30" as="geometry" />
        </mxCell>
        <mxCell id="E4i1Siv4stSAGuv7sPo--27" value="" style="ellipse;whiteSpace=wrap;html=1;aspect=fixed;" vertex="1" parent="1">
          <mxGeometry x="1340" y="1040" width="70" height="70" as="geometry" />
        </mxCell>
        <mxCell id="E4i1Siv4stSAGuv7sPo--28" value="&lt;span style=&quot;font-size: 20px;&quot;&gt;100&lt;/span&gt;" style="text;html=1;strokeColor=none;fillColor=none;align=center;verticalAlign=middle;whiteSpace=wrap;rounded=0;" vertex="1" parent="1">
          <mxGeometry x="1346" y="1060" width="60" height="30" as="geometry" />
        </mxCell>
        <mxCell id="E4i1Siv4stSAGuv7sPo--29" style="edgeStyle=orthogonalEdgeStyle;rounded=0;orthogonalLoop=1;jettySize=auto;html=1;exitX=0.5;exitY=1;exitDx=0;exitDy=0;" edge="1" parent="1">
          <mxGeometry relative="1" as="geometry">
            <mxPoint x="1274" y="1121" as="targetPoint" />
            <mxPoint x="1469" y="1111" as="sourcePoint" />
            <Array as="points">
              <mxPoint x="1469" y="1156" />
              <mxPoint x="1275" y="1156" />
            </Array>
          </mxGeometry>
        </mxCell>
        <mxCell id="E4i1Siv4stSAGuv7sPo--30" value="" style="ellipse;whiteSpace=wrap;html=1;aspect=fixed;" vertex="1" parent="1">
          <mxGeometry x="1440" y="1040" width="70" height="70" as="geometry" />
        </mxCell>
        <mxCell id="E4i1Siv4stSAGuv7sPo--31" value="&lt;span style=&quot;font-size: 20px;&quot;&gt;010&lt;/span&gt;" style="text;html=1;strokeColor=none;fillColor=none;align=center;verticalAlign=middle;whiteSpace=wrap;rounded=0;" vertex="1" parent="1">
          <mxGeometry x="1446" y="1060" width="60" height="30" as="geometry" />
        </mxCell>
        <mxCell id="E4i1Siv4stSAGuv7sPo--32" value="" style="endArrow=classic;html=1;rounded=0;" edge="1" parent="1">
          <mxGeometry width="50" height="50" relative="1" as="geometry">
            <mxPoint x="1310" y="1076" as="sourcePoint" />
            <mxPoint x="1343" y="1076" as="targetPoint" />
          </mxGeometry>
        </mxCell>
        <mxCell id="E4i1Siv4stSAGuv7sPo--33" value="" style="endArrow=classic;html=1;rounded=0;" edge="1" parent="1">
          <mxGeometry width="50" height="50" relative="1" as="geometry">
            <mxPoint x="1410" y="1076" as="sourcePoint" />
            <mxPoint x="1443" y="1076" as="targetPoint" />
          </mxGeometry>
        </mxCell>
        <mxCell id="E4i1Siv4stSAGuv7sPo--34" value="" style="ellipse;whiteSpace=wrap;html=1;aspect=fixed;" vertex="1" parent="1">
          <mxGeometry x="1240" y="1180" width="70" height="70" as="geometry" />
        </mxCell>
        <mxCell id="E4i1Siv4stSAGuv7sPo--35" value="&lt;span style=&quot;font-size: 20px;&quot;&gt;101&lt;/span&gt;" style="text;html=1;strokeColor=none;fillColor=none;align=center;verticalAlign=middle;whiteSpace=wrap;rounded=0;" vertex="1" parent="1">
          <mxGeometry x="1246" y="1200" width="60" height="30" as="geometry" />
        </mxCell>
        <mxCell id="E4i1Siv4stSAGuv7sPo--36" value="" style="ellipse;whiteSpace=wrap;html=1;aspect=fixed;" vertex="1" parent="1">
          <mxGeometry x="1340" y="1180" width="70" height="70" as="geometry" />
        </mxCell>
        <mxCell id="E4i1Siv4stSAGuv7sPo--37" value="&lt;span style=&quot;font-size: 20px;&quot;&gt;110&lt;/span&gt;" style="text;html=1;strokeColor=none;fillColor=none;align=center;verticalAlign=middle;whiteSpace=wrap;rounded=0;" vertex="1" parent="1">
          <mxGeometry x="1346" y="1200" width="60" height="30" as="geometry" />
        </mxCell>
        <mxCell id="E4i1Siv4stSAGuv7sPo--55" style="edgeStyle=orthogonalEdgeStyle;rounded=0;orthogonalLoop=1;jettySize=auto;html=1;exitX=0.5;exitY=0;exitDx=0;exitDy=0;entryX=0.5;entryY=1;entryDx=0;entryDy=0;" edge="1" parent="1" source="E4i1Siv4stSAGuv7sPo--39" target="E4i1Siv4stSAGuv7sPo--25">
          <mxGeometry relative="1" as="geometry" />
        </mxCell>
        <mxCell id="E4i1Siv4stSAGuv7sPo--39" value="" style="ellipse;whiteSpace=wrap;html=1;aspect=fixed;" vertex="1" parent="1">
          <mxGeometry x="1440" y="1180" width="70" height="70" as="geometry" />
        </mxCell>
        <mxCell id="E4i1Siv4stSAGuv7sPo--40" value="&lt;span style=&quot;font-size: 20px;&quot;&gt;011&lt;/span&gt;" style="text;html=1;strokeColor=none;fillColor=none;align=center;verticalAlign=middle;whiteSpace=wrap;rounded=0;" vertex="1" parent="1">
          <mxGeometry x="1446" y="1200" width="60" height="30" as="geometry" />
        </mxCell>
        <mxCell id="E4i1Siv4stSAGuv7sPo--41" value="" style="endArrow=classic;html=1;rounded=0;" edge="1" parent="1">
          <mxGeometry width="50" height="50" relative="1" as="geometry">
            <mxPoint x="1310" y="1216" as="sourcePoint" />
            <mxPoint x="1343" y="1216" as="targetPoint" />
          </mxGeometry>
        </mxCell>
        <mxCell id="E4i1Siv4stSAGuv7sPo--42" value="" style="endArrow=classic;html=1;rounded=0;" edge="1" parent="1">
          <mxGeometry width="50" height="50" relative="1" as="geometry">
            <mxPoint x="1410" y="1216" as="sourcePoint" />
            <mxPoint x="1443" y="1216" as="targetPoint" />
          </mxGeometry>
        </mxCell>
        <mxCell id="E4i1Siv4stSAGuv7sPo--51" style="edgeStyle=orthogonalEdgeStyle;rounded=0;orthogonalLoop=1;jettySize=auto;html=1;exitX=0.5;exitY=0;exitDx=0;exitDy=0;entryX=0.5;entryY=0;entryDx=0;entryDy=0;" edge="1" parent="1" source="E4i1Siv4stSAGuv7sPo--43" target="E4i1Siv4stSAGuv7sPo--27">
          <mxGeometry relative="1" as="geometry" />
        </mxCell>
        <mxCell id="E4i1Siv4stSAGuv7sPo--43" value="" style="ellipse;whiteSpace=wrap;html=1;aspect=fixed;" vertex="1" parent="1">
          <mxGeometry x="1540" y="1040" width="70" height="70" as="geometry" />
        </mxCell>
        <mxCell id="E4i1Siv4stSAGuv7sPo--44" value="&lt;span style=&quot;font-size: 20px;&quot;&gt;000&lt;/span&gt;" style="text;html=1;strokeColor=none;fillColor=none;align=center;verticalAlign=middle;whiteSpace=wrap;rounded=0;" vertex="1" parent="1">
          <mxGeometry x="1546" y="1060" width="60" height="30" as="geometry" />
        </mxCell>
        <mxCell id="E4i1Siv4stSAGuv7sPo--46" value="" style="ellipse;whiteSpace=wrap;html=1;aspect=fixed;" vertex="1" parent="1">
          <mxGeometry x="1540" y="1180" width="70" height="70" as="geometry" />
        </mxCell>
        <mxCell id="E4i1Siv4stSAGuv7sPo--52" style="edgeStyle=orthogonalEdgeStyle;rounded=0;orthogonalLoop=1;jettySize=auto;html=1;exitX=0;exitY=0.5;exitDx=0;exitDy=0;entryX=1;entryY=0.5;entryDx=0;entryDy=0;" edge="1" parent="1" source="E4i1Siv4stSAGuv7sPo--47" target="E4i1Siv4stSAGuv7sPo--39">
          <mxGeometry relative="1" as="geometry" />
        </mxCell>
        <mxCell id="E4i1Siv4stSAGuv7sPo--47" value="&lt;span style=&quot;font-size: 20px;&quot;&gt;111&lt;/span&gt;" style="text;html=1;strokeColor=none;fillColor=none;align=center;verticalAlign=middle;whiteSpace=wrap;rounded=0;" vertex="1" parent="1">
          <mxGeometry x="1546" y="1200" width="60" height="30" as="geometry" />
        </mxCell>
      </root>
    </mxGraphModel>
  </diagram>
</mxfile>
